<svg id="Layer_5" enable-background="new 0 0 64 64" height="512" viewBox="0 0 64 64" width="512" xmlns="http://www.w3.org/2000/svg"><g><path d="m31.524 41c1.864 0 3.616-.726 4.934-2.044l7.956-7.956h4.586c1.654 0 3-1.346 3-3v-2c0-.92-.425-1.735-1.08-2.286.665-.714 1.08-1.664 1.08-2.714v-1.791c0-.68.322-1.293.862-1.64 2.591-1.666 4.138-4.496 4.138-7.569 0-2.561-1.096-5.008-3.006-6.714-1.909-1.706-4.477-2.516-7.039-2.228-4.051.458-7.365 3.723-7.88 7.763-.447 3.51 1.118 6.867 4.084 8.762.518.331.84.97.84 1.667v1.957c-.579.188-1.115.494-1.558.938l-2.441 2.441-8.026 8.025c-1.117-.991-3.355-2.792-5.658-3.559-1.107-.37-2.329-.649-3.63-.832-.961-.136-1.686-.985-1.686-1.975v-1.328c1.529-.888 2.739-2.264 3.411-3.918h.589c2.206 0 4-1.794 4-4 0-.855-.275-1.645-.734-2.296l.01-.021c.474-.946.724-2.005.724-3.064 0-2.612-1.452-4.961-3.789-6.131l-.222-.111c-.061-2.422-2.04-4.376-4.476-4.376h-6.513c-3.716 0-6.766 2.911-6.987 6.573l-.196.196c-1.171 1.172-1.817 2.73-1.817 4.386 0 .668.107 1.328.318 1.962l.273.819c-.367.604-.591 1.306-.591 2.064 0 2.206 1.794 4 4 4h.589c.672 1.654 1.882 3.03 3.411 3.918v1.434c0 1.007-.753 1.859-1.752 1.984l-2.829.354c-1.859.232-3.613 1.091-4.938 2.416-1.6 1.599-2.481 3.725-2.481 5.988v15.906c0 1.654 1.346 3 3 3h2c.352 0 .686-.072 1-.184v7.184h20v-23.497l1.184.646c1.022.557 2.176.851 3.34.851zm18.476-20c0 .908-.613 1.669-1.444 1.912-.565-.952-1.49-1.603-2.556-1.822v-.09zm-8.94-11.926c.4-3.137 2.974-5.672 6.12-6.027 2.026-.236 3.975.385 5.481 1.73 1.486 1.328 2.339 3.232 2.339 5.223 0 2.39-1.204 4.591-3.22 5.888-1.057.679-1.703 1.833-1.768 3.112h-4.028c-.074-1.291-.711-2.439-1.749-3.103-2.307-1.474-3.524-4.088-3.175-6.823zm2.796 14.485c.355-.355.846-.559 1.348-.559.727 0 1.38.403 1.705 1.054l.473.946h1.618c.551 0 1 .448 1 1v2c0 .552-.449 1-1 1h-4.586l-3-3zm-23.117 10.152-2.398-1.919 1.827-2.742c.02.02.04.039.06.058zm-1.81 8.946-1.929 1.929-1.929-1.929 1.506-9.038.423-.338.423.338zm-5.17-13.434c.038-.037.078-.071.115-.109l1.785 2.678-2.398 1.919zm11.241-10.223h-.069c.041-.328.069-.661.069-1v-3c1.103 0 2 .897 2 2s-.897 2-2 2zm-16 0c-1.103 0-2-.897-2-2s.897-2 2-2v3c0 .339.028.672.069 1zm.016-6h-.016c-.648 0-1.252.17-1.794.444-.135-.417-.206-.85-.206-1.289 0-1.122.438-2.178 1.231-2.973l.769-.768v-.414c0-2.757 2.243-5 5-5h6.513c1.371 0 2.487 1.116 2.487 2.487 0 1.072-.684 2.02-1.7 2.358l-.616.205.632 1.898.616-.206c1.184-.395 2.111-1.25 2.625-2.325 1.509.866 2.443 2.445 2.443 4.201 0 .6-.118 1.197-.335 1.756-.508-.234-1.069-.374-1.665-.374v-2h-4.528c-2.772 0-5.547-.655-8.025-1.895l-.447-.223-.447.224c-1.503.752-2.453 2.231-2.537 3.894zm1.984 5v-4.764c0-.842.395-1.611 1.054-2.101 2.625 1.222 5.523 1.865 8.418 1.865h2.528v5c0 3.309-2.691 6-6 6s-6-2.691-6-6zm6 8c.692 0 1.359-.097 2-.263v.508c0 .279.036.55.091.815l-2.091 3.137-2.069-3.104c.045-.241.069-.489.069-.741v-.615c.641.166 1.308.263 2 .263zm-12.105 6.52c1.012-1.013 2.352-1.668 3.772-1.846l2.829-.354c.046-.006.087-.022.132-.029l-.889 7.998 3.499-2.799-1.309 7.853 4.071 4.071 4.071-4.071-1.309-7.853 3.499 2.799-.9-8.1c.016.003.031.009.048.011 1.181.166 2.283.417 3.275.748 2.04.68 4.139 2.419 5.088 3.272l-.666 1.333 1.789.895.927-1.855 7.178-7.179 2.586 2.586-7.542 7.542c-.94.94-2.19 1.458-3.52 1.458-.83 0-1.654-.21-2.383-.607l-2.124-1.158c.043-.576.277-1.114.69-1.527l-1.415-1.414c-.833.833-1.292 1.941-1.292 3.12v11.586h-14.127c-.137-.476-.38-.921-.733-1.274l-1.14-1.14v-9.172c0-1.179-.459-2.287-1.292-3.121l-1.415 1.414c.456.456.707 1.063.707 1.707v8.586h-4v-8.906c0-1.703.691-3.37 1.895-4.574zm1.105 21.48h-2c-.551 0-1-.448-1-1v-5h4.586l1.14 1.14c.174.174.274.416.274.663 0 .357-.199.679-.518.838l-1.482.741v.618 1c0 .552-.449 1-1 1zm12 7v-2.838c0-1.46.931-2.751 2.316-3.214l-.633-1.896c-1.112.371-2.037 1.078-2.684 1.985-.646-.907-1.572-1.615-2.684-1.985l-.633 1.896c1.387.463 2.318 1.754 2.318 3.214v2.838h-7v-8-.382l.376-.188c.624-.312 1.1-.82 1.371-1.43h14.253v10z"/><path d="m52.707 7.707-1.414-1.414-5.293 5.293-1.293-1.293-1.414 1.414 2.707 2.707z"/><path d="m46 51v-1.586c0-1.331-1.083-2.414-2.414-2.414-.635 0-1.257.258-1.707.707l-3.293 3.293h-4.586c-1.654 0-3 1.346-3 3v4c0 1.654 1.346 3 3 3h12c1.654 0 3-1.346 3-3v-4c0-1.654-1.346-3-3-3zm1 7c0 .552-.449 1-1 1h-12c-.551 0-1-.448-1-1v-4c0-.552.449-1 1-1h5.414l3.878-3.878c.241-.241.708-.045.708.292v3.586h2c.551 0 1 .448 1 1z"/><path d="m35 55h10v2h-10z"/><path d="m60 33h-12c-1.654 0-3 1.346-3 3v4c0 1.654 1.346 3 3 3v1.586c0 1.331 1.083 2.414 2.414 2.414.635 0 1.257-.258 1.707-.707l3.293-3.293h4.586c1.654 0 3-1.346 3-3v-4c0-1.654-1.346-3-3-3zm1 7c0 .552-.449 1-1 1h-5.414l-3.878 3.878c-.241.241-.708.045-.708-.292v-3.586h-2c-.551 0-1-.448-1-1v-4c0-.552.449-1 1-1h12c.551 0 1 .448 1 1z"/><path d="m49 37h10v2h-10z"/></g></svg>