<svg height="512pt" viewBox="0 0 512 512" width="512pt" xmlns="http://www.w3.org/2000/svg"><path d="m482 225.039062v-.039062c0-124.066406-101.382812-225-226-225s-226 100.933594-226 225v.039062c-18.203125 13.699219-30 35.476563-30 59.960938v62c0 41.355469 33.644531 75 75 75h30c8.285156 0 15-6.714844 15-15v-182c0-74.4375 61.007812-135 136-135 74.988281 0 136 60.5625 136 135v182c0 8.285156 6.714844 15 15 15h15v15c0 8.269531-6.730469 15-15 15h-77.578125c-6.195313-17.457031-22.867187-30-42.421875-30h-61c-24.8125 0-45 20.1875-45 45s20.1875 45 45 45h61c19.554688 0 36.226562-12.542969 42.421875-30h77.578125c24.8125 0 45-20.1875 45-45v-16.507812c34.191406-6.96875 60-37.273438 60-73.492188v-62c0-24.484375-11.796875-46.261719-30-59.960938zm-195 256.960938h-61c-8.269531 0-15-6.730469-15-15s6.730469-15 15-15h61c8.269531 0 15 6.730469 15 15s-6.730469 15-15 15zm-197-90h-15c-24.8125 0-45-20.1875-45-45v-62c0-24.8125 20.1875-45 45-45h15zm166-332c-87.21875 0-157.777344 67.222656-165.308594 150h-15.691406c-4.96875 0-9.816406.496094-14.515625 1.421875 7.03125-101.210937 92.027344-181.421875 195.515625-181.421875s188.484375 80.210938 195.515625 181.421875c-4.699219-.925781-9.546875-1.421875-14.515625-1.421875h-15.691406c-7.535156-82.816406-78.128906-150-165.308594-150zm226 287c0 24.8125-20.1875 45-45 45h-15v-152h15c24.8125 0 45 20.1875 45 45zm0 0"/></svg>