<?xml version="1.0" encoding="UTF-8"?>
<svg xmlns="http://www.w3.org/2000/svg" viewBox="0 0 64 64" width="512" height="512"><g id="arrow-maximize-move-user_interface-interface" data-name="arrow-maximize-move-user interface-interface"><path d="M32,63a1,1,0,0,1-.707-.293l-10-10a3.828,3.828,0,0,1,5.414-5.414L28,48.586V36H15.414l1.293,1.293a3.828,3.828,0,0,1-5.414,5.414l-10-10a1,1,0,0,1,0-1.414l10-10a3.828,3.828,0,0,1,5.414,5.414L15.414,28H28V15.414l-1.293,1.293a3.828,3.828,0,0,1-5.414-5.414l10-10a1,1,0,0,1,1.414,0l10,10a3.828,3.828,0,0,1-5.414,5.414L36,15.414V28H48.586l-1.293-1.293a3.828,3.828,0,0,1,5.414-5.414l10,10a1,1,0,0,1,0,1.414l-10,10a3.828,3.828,0,0,1-5.414-5.414L48.586,36H36V48.586l1.293-1.293a3.828,3.828,0,0,1,5.414,5.414l-10,10A1,1,0,0,1,32,63ZM24,48.172a1.828,1.828,0,0,0-1.293,3.121L32,60.586l9.293-9.293a1.829,1.829,0,0,0-2.586-2.586l-3,3A1,1,0,0,1,34,51V35a1,1,0,0,1,1-1H51a1,1,0,0,1,.707,1.707l-3,3a1.829,1.829,0,0,0,2.586,2.586L60.586,32l-9.293-9.293a1.829,1.829,0,0,0-2.586,2.586l3,3A1,1,0,0,1,51,30H35a1,1,0,0,1-1-1V13a1,1,0,0,1,1.707-.707l3,3a1.829,1.829,0,0,0,2.586-2.586L32,3.414l-9.293,9.293a1.829,1.829,0,0,0,2.586,2.586l3-3A1,1,0,0,1,30,13V29a1,1,0,0,1-1,1H13a1,1,0,0,1-.707-1.707l3-3a1.829,1.829,0,0,0-2.586-2.586L3.414,32l9.293,9.293a1.829,1.829,0,0,0,2.586-2.586l-3-3A1,1,0,0,1,13,34H29a1,1,0,0,1,1,1V51a1,1,0,0,1-1.707.707l-3-3A1.825,1.825,0,0,0,24,48.172Z"/></g></svg>
