<?xml version="1.0" encoding="iso-8859-1"?>
<!-- Generator: Adobe Illustrator 19.0.0, SVG Export Plug-In . SVG Version: 6.00 Build 0)  -->
<svg version="1.1" id="Capa_1" xmlns="http://www.w3.org/2000/svg" xmlns:xlink="http://www.w3.org/1999/xlink" x="0px" y="0px"
	 viewBox="0 0 512 512" style="enable-background:new 0 0 512 512;" xml:space="preserve">
<g>
	<g>
		<path d="M437.02,74.98C388.668,26.629,324.38,0,256,0c-56.329,0-109.767,17.942-154.534,51.887
			C70.633,75.266,45.098,105.81,27.62,140.216C9.293,176.297,0,215.252,0,256c0,68.38,26.629,132.667,74.98,181.02
			C123.332,485.371,187.62,512,256,512s132.668-26.629,181.02-74.98C485.371,388.667,512,324.38,512,256
			S485.371,123.333,437.02,74.98z M256,497C123.112,497,15,388.888,15,256c0-76.087,34.818-146.127,95.528-192.161
			C152.667,31.888,202.971,15,256,15c132.888,0,241,108.112,241,241S388.888,497,256,497z"/>
	</g>
</g>
<g>
	<g>
		<path d="M448.01,216.54c-2.58-12.57-6.43-24.94-11.44-36.77c-4.92-11.61-11.01-22.81-18.09-33.29
			c-7.02-10.38-15.08-20.14-23.95-29.01c-8.869-8.88-18.64-16.93-29.01-23.95c-10.479-7.09-21.68-13.17-33.29-18.09
			c-11.83-5.01-24.2-8.86-36.77-11.44C282.55,61.34,269.279,60,256,60h-0.01c-16.181,0-32.221,1.95-47.681,5.8
			c-15.42,3.84-30.35,9.59-44.37,17.08c-1.77,0.95-3.06,2.52-3.64,4.44s-0.38,3.94,0.56,5.71c1.311,2.45,3.841,3.97,6.62,3.97
			c1.221,0,2.44-0.31,3.53-0.89C197.229,82.1,225.819,75,256,75c48.26,0,93.689,18.85,127.92,53.08
			C418.149,162.31,437,207.74,437,256s-18.851,93.69-53.08,127.92C349.689,418.15,304.26,437,256,437s-93.69-18.85-127.92-53.08
			C93.85,349.69,75,304.26,75,256c0-6.22,0.31-12.49,0.939-18.65c5.09-50.27,30.25-94.91,70.84-125.7c3.29-2.5,3.94-7.21,1.44-10.51
			c-1.429-1.88-3.61-2.97-5.979-2.97c-1.641,0-3.2,0.53-4.511,1.52c-0.01,0-0.01,0.01-0.01,0.01
			c-10.87,8.24-20.88,17.57-29.75,27.73c-8.78,10.05-16.53,21.01-23.04,32.59c-6.49,11.55-11.81,23.82-15.81,36.47
			c-4.03,12.74-6.761,25.98-8.11,39.36c-0.01,0.06-0.01,0.13-0.02,0.2C60.34,242.6,60,249.32,60,256c0,13.28,1.35,26.55,3.99,39.46
			c2.579,12.57,6.43,24.94,11.439,36.77c4.92,11.61,11.01,22.81,18.09,33.29c7.021,10.37,15.08,20.14,23.95,29.01
			c8.87,8.88,18.64,16.93,29.01,23.95c10.48,7.09,21.681,13.17,33.29,18.09c11.83,5.01,24.2,8.86,36.771,11.44
			c12.91,2.64,26.18,3.99,39.46,3.99c13.279,0,26.55-1.35,39.46-3.99c12.569-2.58,24.939-6.43,36.77-11.44
			c11.61-4.92,22.811-11,33.29-18.09c10.37-7.02,20.141-15.07,29.01-23.95c8.87-8.87,16.931-18.64,23.95-29.01
			c7.08-10.48,13.17-21.68,18.09-33.29c5.011-11.83,8.86-24.2,11.44-36.77c2.65-12.91,3.99-26.18,3.99-39.46
			C452,242.72,450.66,229.45,448.01,216.54z"/>
	</g>
</g>
<g>
	<g>
		<path d="M408.93,191.44c-4.17-9.83-9.32-19.32-15.32-28.19c-5.939-8.79-12.77-17.06-20.279-24.58
			c-7.521-7.51-15.79-14.34-24.58-20.28c-8.87-6-18.36-11.16-28.19-15.32C300.1,94.4,278.38,90,256,90h-0.061
			c-18.14,0-35.93,2.88-52.87,8.57c-16.939,5.69-32.829,14.11-47.229,25.03c-1.87,1.42-2.95,3.59-2.97,5.94
			c-0.011,1.67,0.52,3.24,1.529,4.57c1.431,1.89,3.611,2.97,5.981,2.97c1.649,0,3.21-0.53,4.53-1.52
			c26.36-19.98,57.86-30.55,91.09-30.56c40.26,0,78.16,15.73,106.72,44.28C391.27,177.84,407,215.74,407,256
			s-15.73,78.16-44.28,106.72C334.16,391.27,296.26,407,256,407s-78.16-15.73-106.721-44.28C120.729,334.16,105,296.26,105,256
			c0.01-37.62,13.8-73.55,38.83-101.16c1.34-1.49,2.029-3.41,1.93-5.41s-0.97-3.84-2.45-5.18c-1.38-1.26-3.17-1.95-5.04-1.95
			c-2.109,0-4.14,0.9-5.55,2.46c-13.7,15.1-24.35,32.36-31.65,51.3C93.72,215.12,90,235.29,90,256c0,22.38,4.399,44.1,13.069,64.56
			c4.16,9.83,9.32,19.32,15.32,28.19c5.94,8.79,12.771,17.06,20.28,24.58c7.52,7.51,15.78,14.34,24.58,20.28
			c8.87,6,18.359,11.16,28.189,15.32C211.899,417.6,233.62,422,256,422s44.1-4.4,64.56-13.07c9.83-4.16,19.32-9.32,28.19-15.32
			c8.79-5.94,17.06-12.77,24.58-20.28c7.51-7.52,14.34-15.79,20.279-24.58c6-8.87,11.15-18.36,15.32-28.19
			C417.6,300.1,421.99,278.38,422,256C421.99,233.62,417.6,211.9,408.93,191.44z"/>
	</g>
</g>
<g>
	<g>
		<path d="M381.29,203.11c-3.41-8.06-7.63-15.83-12.55-23.1c-4.87-7.2-10.461-13.98-16.62-20.13
			c-6.15-6.16-12.931-11.75-20.13-16.62c-7.271-4.92-15.04-9.14-23.101-12.55C292.13,123.61,274.33,120,256,120h-0.021
			c-19.109,0-37.52,3.84-54.72,11.42c-1.83,0.81-3.24,2.28-3.97,4.15c-0.721,1.87-0.681,3.91,0.13,5.74
			c1.2,2.72,3.89,4.48,6.87,4.48c1.04,0,2.06-0.22,3.02-0.64C222.59,138.42,238.97,135,256,135c32.26,0,62.63,12.6,85.52,35.48
			C364.399,193.37,377,223.74,377,256s-12.601,62.63-35.48,85.52C318.63,364.4,288.26,377,256,377s-62.63-12.6-85.521-35.48
			C147.6,318.63,135,288.25,135,256c0.02-38.15,17.49-73.31,47.93-96.46c0.04-0.03,0.07-0.05,0.1-0.08c0.011,0,0.011,0,0.011-0.01
			c1.87-1.42,2.95-3.58,2.96-5.93c0.01-1.66-0.521-3.24-1.521-4.57c-1.43-1.88-3.609-2.97-5.989-2.97
			c-1.641,0-3.211,0.53-4.521,1.53c-8.47,6.42-16.17,13.77-22.89,21.86c-6.63,8.01-12.33,16.76-16.95,26.03
			c-4.61,9.28-8.15,19.1-10.521,29.21C121.21,234.83,119.99,245.39,120,256c0,18.33,3.609,36.13,10.71,52.89
			c3.41,8.06,7.63,15.83,12.55,23.1c4.87,7.2,10.46,13.98,16.61,20.13c6.159,6.16,12.939,11.75,20.14,16.62
			c7.27,4.92,15.04,9.14,23.1,12.55C219.87,388.39,237.66,392,256,392c18.33,0,36.13-3.61,52.89-10.71
			c8.061-3.41,15.83-7.63,23.101-12.55c7.199-4.87,13.979-10.46,20.13-16.62c6.159-6.15,11.75-12.93,16.62-20.13
			c4.92-7.27,9.14-15.04,12.55-23.1C388.39,292.13,392,274.33,392,256C392,237.67,388.39,219.87,381.29,203.11z"/>
	</g>
</g>
<g>
	<g>
		<path d="M256,150c-23.332,0-45.43,7.405-63.904,21.413C165.343,191.698,150,222.528,150,256c0,58.449,47.552,106,106,106
			s106-47.551,106-106C362,197.551,314.448,150,256,150z M256,347c-50.178,0-91-40.822-91-91c0-28.736,13.18-55.21,36.158-72.634
			C217.004,171.351,235.968,165,256,165c50.178,0,91,40.822,91,91C347,306.178,306.178,347,256,347z"/>
	</g>
</g>
<g>
	<g>
		<path d="M256,233.5c-4.96,0-9.631,1.554-13.503,4.492c-5.718,4.334-8.997,10.897-8.997,18.008c0,12.407,10.094,22.5,22.5,22.5
			s22.5-10.093,22.5-22.5C278.5,243.593,268.406,233.5,256,233.5z M256,263.5c-4.136,0-7.5-3.364-7.5-7.5
			c0-2.409,1.086-4.559,3.061-6.056c1.263-0.958,2.757-1.444,4.439-1.444c4.136,0,7.5,3.364,7.5,7.5S260.136,263.5,256,263.5z"/>
	</g>
</g>
<g>
	<g>
		<path d="M480.12,226.9c-3.62-27.82-12.2-54.32-25.511-78.76c-12.859-23.62-29.71-44.6-50.09-62.36
			c-41.279-35.98-93.97-55.79-148.37-55.8c-9.699,0-19.55,0.64-29.25,1.9c-19.33,2.51-38.159,7.43-55.96,14.63
			c-17.75,7.18-34.55,16.64-49.92,28.14c-1.6,1.2-2.64,2.95-2.93,4.93c-0.29,1.98,0.22,3.96,1.42,5.57c1.43,1.91,3.62,3,6.01,3
			c1.63,0,3.181-0.51,4.48-1.49c29.09-21.74,62.34-35.16,98.83-39.9c9.069-1.18,18.26-1.78,27.319-1.78h0.021
			c105.6,0,195.479,79.04,209.07,183.85c1.18,9.05,1.77,18.25,1.77,27.33c0.01,105.61-79.02,195.49-183.84,209.08
			c-9.061,1.18-18.25,1.77-27.34,1.77c-56,0-110.811-23.07-150.38-63.29c-32.44-32.99-52.73-74.67-58.69-120.55
			c-1.2-9.22-1.81-18.56-1.81-27.75c0.01-56.57,22.42-109.79,63.1-149.88c1.45-1.43,2.24-3.33,2.229-5.37
			c0-1.97-0.77-3.83-2.149-5.23c-1.42-1.45-3.32-2.24-5.351-2.24c-1.979,0-3.85,0.77-5.26,2.16c-10.819,10.65-20.569,22.35-29,34.78
			c-8.33,12.3-15.46,25.45-21.18,39.08c-5.7,13.6-10.07,27.82-12.98,42.28c-2.93,14.55-4.409,29.49-4.409,44.42
			c0,9.84,0.649,19.83,1.93,29.68c3.22,24.78,10.42,48.62,21.41,70.86c10.62,21.5,24.569,41.11,41.47,58.28
			c10.34,10.51,21.76,20.06,33.95,28.38c12.229,8.35,25.31,15.52,38.89,21.32c13.76,5.88,28.141,10.39,42.74,13.42
			c14.93,3.09,30.229,4.65,45.5,4.65c9.72,0,19.56-0.63,29.26-1.89c27.811-3.62,54.311-12.2,78.76-25.51
			c23.61-12.86,44.591-29.71,62.351-50.09c35.979-41.28,55.8-93.97,55.8-148.36C482.01,246.43,481.37,236.58,480.12,226.9z"/>
	</g>
</g>
<g>
</g>
<g>
</g>
<g>
</g>
<g>
</g>
<g>
</g>
<g>
</g>
<g>
</g>
<g>
</g>
<g>
</g>
<g>
</g>
<g>
</g>
<g>
</g>
<g>
</g>
<g>
</g>
<g>
</g>
</svg>
