<?xml version="1.0" encoding="utf-8"?><svg xmlns="http://www.w3.org/2000/svg" xmlns:xlink="http://www.w3.org/1999/xlink"><symbol viewBox="0 0 64 64" id="business-idea" xmlns="http://www.w3.org/2000/svg"><path d="M31.524 41a6.932 6.932 0 004.934-2.044L44.414 31H49c1.654 0 3-1.346 3-3v-2c0-.92-.425-1.735-1.08-2.286A3.97 3.97 0 0052 21v-1.791c0-.68.322-1.293.862-1.64A8.966 8.966 0 0057 10a9.012 9.012 0 00-3.006-6.714 9.054 9.054 0 00-7.039-2.228c-4.051.458-7.365 3.723-7.88 7.763-.447 3.51 1.118 6.867 4.084 8.762.518.331.84.97.84 1.667v1.957a3.863 3.863 0 00-1.558.938L40 24.586l-8.026 8.025c-1.117-.991-3.355-2.792-5.658-3.559a20.515 20.515 0 00-3.63-.832c-.961-.136-1.686-.985-1.686-1.975v-1.328a8.042 8.042 0 003.411-3.918H25c2.206 0 4-1.794 4-4 0-.855-.275-1.645-.734-2.296l.01-.021A6.872 6.872 0 0029 11.618a6.82 6.82 0 00-3.789-6.131l-.222-.111C24.928 2.954 22.949 1 20.513 1H14c-3.716 0-6.766 2.911-6.987 6.573l-.196.196A6.167 6.167 0 005 12.155c0 .668.107 1.328.318 1.962l.273.819A3.96 3.96 0 005 17c0 2.206 1.794 4 4 4h.589A8.042 8.042 0 0013 24.918v1.434a2.002 2.002 0 01-1.752 1.984l-2.829.354a8.51 8.51 0 00-4.938 2.416A8.409 8.409 0 001 37.094V53c0 1.654 1.346 3 3 3h2c.352 0 .686-.072 1-.184V63h20V39.503l1.184.646a6.997 6.997 0 003.34.851zM50 21c0 .908-.613 1.669-1.444 1.912A3.866 3.866 0 0046 21.09V21zM41.06 9.074c.4-3.137 2.974-5.672 6.12-6.027a6.929 6.929 0 015.481 1.73A7.014 7.014 0 0155 10a6.976 6.976 0 01-3.22 5.888c-1.057.679-1.703 1.833-1.768 3.112h-4.028c-.074-1.291-.711-2.439-1.749-3.103-2.307-1.474-3.524-4.088-3.175-6.823zm2.796 14.485A1.92 1.92 0 0145.204 23c.727 0 1.38.403 1.705 1.054l.473.946H49c.551 0 1 .448 1 1v2c0 .552-.449 1-1 1h-4.586l-3-3zM20.739 33.711l-2.398-1.919 1.827-2.742.06.058zm-1.81 8.946L17 44.586l-1.929-1.929 1.506-9.038.423-.338.423.338zm-5.17-13.434c.038-.037.078-.071.115-.109l1.785 2.678-2.398 1.919zM25 19h-.069c.041-.328.069-.661.069-1v-3c1.103 0 2 .897 2 2s-.897 2-2 2zM9 19c-1.103 0-2-.897-2-2s.897-2 2-2v3c0 .339.028.672.069 1zm.016-6H9a3.96 3.96 0 00-1.794.444 4.184 4.184 0 011.025-4.262L9 8.414V8c0-2.757 2.243-5 5-5h6.513A2.49 2.49 0 0123 5.487c0 1.072-.684 2.02-1.7 2.358l-.616.205.632 1.898.616-.206a4.478 4.478 0 002.625-2.325 4.822 4.822 0 012.108 5.957A3.966 3.966 0 0025 13v-2h-4.528c-2.772 0-5.547-.655-8.025-1.895L12 8.882l-.447.224A4.586 4.586 0 009.016 13zM11 18v-4.764c0-.842.395-1.611 1.054-2.101A20.036 20.036 0 0020.472 13H23v5c0 3.309-2.691 6-6 6s-6-2.691-6-6zm6 8c.692 0 1.359-.097 2-.263v.508c0 .279.036.55.091.815L17 30.197l-2.069-3.104c.045-.241.069-.489.069-.741v-.615A7.953 7.953 0 0017 26zM4.895 32.52a6.5 6.5 0 013.772-1.846l2.829-.354c.046-.006.087-.022.132-.029l-.889 7.998 3.499-2.799-1.309 7.853L17 47.414l4.071-4.071-1.309-7.853 3.499 2.799-.9-8.1c.016.003.031.009.048.011 1.181.166 2.283.417 3.275.748 2.04.68 4.139 2.419 5.088 3.272l-.666 1.333 1.789.895.927-1.855L40 27.414 42.586 30l-7.542 7.542A4.945 4.945 0 0131.524 39c-.83 0-1.654-.21-2.383-.607l-2.124-1.158a2.39 2.39 0 01.69-1.527l-1.415-1.414A4.383 4.383 0 0025 37.414V49H10.873a2.944 2.944 0 00-.733-1.274L9 46.586v-9.172a4.387 4.387 0 00-1.292-3.121l-1.415 1.414A2.4 2.4 0 017 37.414V46H3v-8.906c0-1.703.691-3.37 1.895-4.574zM6 54H4c-.551 0-1-.448-1-1v-5h4.586l1.14 1.14a.945.945 0 01.274.663.932.932 0 01-.518.838L7 51.382V53c0 .552-.449 1-1 1zm12 7v-2.838c0-1.46.931-2.751 2.316-3.214l-.633-1.896a5.383 5.383 0 00-2.684 1.985 5.373 5.373 0 00-2.684-1.985l-.633 1.896A3.385 3.385 0 0116 58.162V61H9v-8.382l.376-.188c.624-.312 1.1-.82 1.371-1.43H25v10z"/><path d="M52.707 7.707l-1.414-1.414L46 11.586l-1.293-1.293-1.414 1.414L46 14.414zM46 51v-1.586A2.417 2.417 0 0043.586 47c-.635 0-1.257.258-1.707.707L38.586 51H34c-1.654 0-3 1.346-3 3v4c0 1.654 1.346 3 3 3h12c1.654 0 3-1.346 3-3v-4c0-1.654-1.346-3-3-3zm1 7c0 .552-.449 1-1 1H34c-.551 0-1-.448-1-1v-4c0-.552.449-1 1-1h5.414l3.878-3.878c.241-.241.708-.045.708.292V53h2c.551 0 1 .448 1 1z"/><path d="M35 55h10v2H35zm25-22H48c-1.654 0-3 1.346-3 3v4c0 1.654 1.346 3 3 3v1.586A2.417 2.417 0 0050.414 47c.635 0 1.257-.258 1.707-.707L55.414 43H60c1.654 0 3-1.346 3-3v-4c0-1.654-1.346-3-3-3zm1 7c0 .552-.449 1-1 1h-5.414l-3.878 3.878c-.241.241-.708.045-.708-.292V41h-2c-.551 0-1-.448-1-1v-4c0-.552.449-1 1-1h12c.551 0 1 .448 1 1z"/><path d="M49 37h10v2H49z"/></symbol><symbol viewBox="0 0 1792 1792" id="calendar-check-o" xmlns="http://www.w3.org/2000/svg"><path d="M1303 964l-512 512q-10 9-23 9t-23-9l-288-288q-9-10-9-23t9-22l46-46q9-9 22-9t23 9l220 220 444-444q10-9 23-9t22 9l46 46q9 9 9 22t-9 23zM128 1664h1408V640H128v1024zM512 448V160q0-14-9-23t-23-9h-64q-14 0-23 9t-9 23v288q0 14 9 23t23 9h64q14 0 23-9t9-23zm768 0V160q0-14-9-23t-23-9h-64q-14 0-23 9t-9 23v288q0 14 9 23t23 9h64q14 0 23-9t9-23zm384-64v1280q0 52-38 90t-90 38H128q-52 0-90-38t-38-90V384q0-52 38-90t90-38h128v-96q0-66 47-113T416 0h64q66 0 113 47t47 113v96h384v-96q0-66 47-113t113-47h64q66 0 113 47t47 113v96h128q52 0 90 38t38 90z"/></symbol><symbol viewBox="0 0 512 512" id="check" xmlns="http://www.w3.org/2000/svg"><path d="M504.502 75.496c-9.997-9.998-26.205-9.998-36.204 0L161.594 382.203 43.702 264.311c-9.997-9.998-26.205-9.997-36.204 0-9.998 9.997-9.998 26.205 0 36.203l135.994 135.992c9.994 9.997 26.214 9.99 36.204 0L504.502 111.7c9.998-9.997 9.997-26.206 0-36.204z"/></symbol><symbol viewBox="0 0 47.971 47.971" id="close" xmlns="http://www.w3.org/2000/svg"><path d="M28.228 23.986L47.092 5.122a2.998 2.998 0 000-4.242 2.998 2.998 0 00-4.242 0L23.986 19.744 5.121.88a2.998 2.998 0 00-4.242 0 2.998 2.998 0 000 4.242l18.865 18.864L.879 42.85a2.998 2.998 0 104.242 4.241l18.865-18.864L42.85 47.091c.586.586 1.354.879 2.121.879s1.535-.293 2.121-.879a2.998 2.998 0 000-4.242L28.228 23.986z"/></symbol><symbol viewBox="0 0 512 512" id="decore" xmlns="http://www.w3.org/2000/svg"><circle cx="382" cy="501.999" r="10"/><path d="M502 132H392V82c0-5.522-4.478-10-10-10H266V10c0-5.522-4.478-10-10-10H10C4.477 0 0 4.478 0 10v372c0 5.522 4.477 10 10 10h116v50c0 5.522 4.477 10 10 10h116v50c0 5.522 4.478 10 10 10h75c5.522 0 10-4.478 10-10s-4.478-10-10-10h-65v-92.143c3.981 5.077 8.052 11.754 11.461 17.347C293.888 434.312 304.669 452 322 452s28.112-17.688 38.539-34.796C367.022 406.567 375.901 392 382 392s14.978 14.567 21.461 25.204C413.888 434.312 424.669 452 442 452s28.112-17.688 38.539-34.796c3.409-5.593 7.48-12.27 11.461-17.347V492h-65c-5.522 0-10 4.478-10 10s4.478 10 10 10h75c5.522 0 10-4.478 10-10V142c0-5.522-4.478-10-10-10zM252 252H146v-70h106zm-106 20h106v70H146zm126-52.143c3.981 5.077 8.052 11.754 11.461 17.347C293.888 254.312 304.669 272 322 272s28.112-17.688 38.539-34.796C367.022 226.567 375.901 212 382 212s14.978 14.567 21.461 25.204C413.888 254.312 424.669 272 442 272s28.112-17.688 38.539-34.796c3.409-5.593 7.48-12.27 11.461-17.347v64.276c-11.789 5.196-20.277 19.107-28.539 32.662C456.978 327.433 448.099 342 442 342s-14.978-14.567-21.461-25.204C410.112 299.688 399.331 282 382 282s-28.112 17.688-38.539 34.796C336.978 327.433 328.099 342 322 342s-14.978-14.567-21.461-25.204c-8.262-13.555-16.75-27.466-28.539-32.662zm220-25.724c-11.789 5.196-20.277 19.107-28.539 32.662C456.978 237.433 448.099 252 442 252s-14.978-14.567-21.461-25.204C410.112 209.688 399.331 192 382 192s-28.112 17.688-38.539 34.796C336.978 237.433 328.099 252 322 252s-14.978-14.567-21.461-25.204c-8.262-13.555-16.75-27.466-28.539-32.662V152h220zM372 132H262c-5.522 0-10 4.478-10 10v20H146V92h226zM20 372V20h226v52H136c-5.523 0-10 4.478-10 10v290zm126 60v-70h106v70zm317.461-25.204C456.978 417.433 448.099 432 442 432s-14.978-14.567-21.461-25.204C410.112 389.688 399.331 372 382 372s-28.112 17.688-38.539 34.796C336.978 417.433 328.099 432 322 432s-14.978-14.567-21.461-25.204c-8.262-13.555-16.75-27.466-28.539-32.662v-64.276c3.981 5.077 8.052 11.754 11.461 17.347C293.888 344.312 304.669 362 322 362s28.112-17.688 38.539-34.796C367.022 316.567 375.901 302 382 302s14.978 14.567 21.461 25.204C413.888 344.312 424.669 362 442 362s28.112-17.688 38.539-34.796c3.409-5.593 7.48-12.27 11.461-17.347v64.276c-11.789 5.197-20.277 19.107-28.539 32.663z"/></symbol><symbol viewBox="0 0 492.004 492.004" id="decore-arrow" xmlns="http://www.w3.org/2000/svg"><path d="M484.14 226.886L306.46 49.202c-5.072-5.072-11.832-7.856-19.04-7.856-7.216 0-13.972 2.788-19.044 7.856l-16.132 16.136c-5.068 5.064-7.86 11.828-7.86 19.04 0 7.208 2.792 14.2 7.86 19.264L355.9 207.526H26.58C11.732 207.526 0 219.15 0 234.002v22.812c0 14.852 11.732 27.648 26.58 27.648h330.496L252.248 388.926c-5.068 5.072-7.86 11.652-7.86 18.864 0 7.204 2.792 13.88 7.86 18.948l16.132 16.084c5.072 5.072 11.828 7.836 19.044 7.836 7.208 0 13.968-2.8 19.04-7.872l177.68-177.68c5.084-5.088 7.88-11.88 7.86-19.1.016-7.244-2.776-14.04-7.864-19.12z"/></symbol><symbol viewBox="0 0 512 512" id="enegjesave" xmlns="http://www.w3.org/2000/svg"><path d="M256 426.668c-94.105 0-170.668-76.563-170.668-170.668S161.895 85.332 256 85.332 426.668 161.895 426.668 256 350.105 426.668 256 426.668zm0-324.27c-84.691 0-153.602 68.91-153.602 153.602S171.308 409.602 256 409.602 409.602 340.692 409.602 256 340.692 102.398 256 102.398zM256 512c-4.71 0-8.535-3.824-8.535-8.535v-51.2c0-4.71 3.824-8.53 8.535-8.53s8.535 3.82 8.535 8.53v51.2c0 4.71-3.824 8.535-8.535 8.535zm0-443.734c-4.71 0-8.535-3.82-8.535-8.532V8.535C247.465 3.825 251.289 0 256 0s8.535 3.824 8.535 8.535v51.2c0 4.71-3.824 8.53-8.535 8.53zM59.734 264.535H8.535C3.825 264.535 0 260.711 0 256s3.824-8.535 8.535-8.535h51.2c4.71 0 8.53 3.824 8.53 8.535s-3.82 8.535-8.53 8.535zm443.731 0h-51.2c-4.71 0-8.53-3.824-8.53-8.535s3.82-8.535 8.53-8.535h51.2c4.71 0 8.535 3.824 8.535 8.535s-3.824 8.535-8.535 8.535zm0 0"/><path d="M213.332 384a8.491 8.491 0 01-3.863-.922 8.541 8.541 0 01-4.446-9.531l23.184-100.48h-40.473a8.543 8.543 0 01-7.765-4.985 8.514 8.514 0 011.312-9.129l110.934-128a8.533 8.533 0 0110.316-2.023 8.519 8.519 0 014.446 9.53l-23.184 100.474h40.473a8.543 8.543 0 017.765 4.984 8.514 8.514 0 01-1.312 9.129l-110.934 128a8.503 8.503 0 01-6.453 2.953zm-6.91-128h32.512a8.521 8.521 0 016.671 3.219 8.544 8.544 0 011.641 7.234l-17.879 77.485L305.578 256h-32.512a8.548 8.548 0 01-6.68-3.219 8.57 8.57 0 01-1.64-7.234l17.887-77.484zm224.562 183.52a8.523 8.523 0 01-6.03-2.5l-36.2-36.2a8.525 8.525 0 010-12.066 8.525 8.525 0 0112.066 0l36.2 36.2a8.525 8.525 0 010 12.066 8.532 8.532 0 01-6.036 2.5zM117.223 125.746a8.516 8.516 0 01-6.035-2.5l-36.208-36.2a8.525 8.525 0 010-12.066c3.329-3.335 8.73-3.335 12.067 0l36.207 36.2a8.518 8.518 0 010 12.066 8.488 8.488 0 01-6.031 2.5zM81.016 439.52a8.532 8.532 0 01-6.036-2.5 8.525 8.525 0 010-12.067l36.207-36.2c3.34-3.335 8.739-3.335 12.067 0a8.518 8.518 0 010 12.067l-36.207 36.2a8.523 8.523 0 01-6.031 2.5zm313.769-313.774a8.507 8.507 0 01-6.031-2.5 8.525 8.525 0 010-12.066l36.2-36.2a8.525 8.525 0 0112.066 0 8.525 8.525 0 010 12.067l-36.2 36.2a8.496 8.496 0 01-6.035 2.5zm0 0"/></symbol><symbol viewBox="0 0 479.058 479.058" id="envelope" xmlns="http://www.w3.org/2000/svg"><path d="M434.146 59.882H44.912C20.146 59.882 0 80.028 0 104.794v269.47c0 24.766 20.146 44.912 44.912 44.912h389.234c24.766 0 44.912-20.146 44.912-44.912v-269.47c0-24.766-20.146-44.912-44.912-44.912zm0 29.941c2.034 0 3.969.422 5.738 1.159L239.529 264.631 39.173 90.982a14.902 14.902 0 015.738-1.159zm0 299.411H44.912c-8.26 0-14.971-6.71-14.971-14.971V122.615l199.778 173.141c2.822 2.441 6.316 3.655 9.81 3.655s6.988-1.213 9.81-3.655l199.778-173.141v251.649c-.001 8.26-6.711 14.97-14.971 14.97z"/></symbol><symbol viewBox="0 0 1792 1792" id="expand" xmlns="http://www.w3.org/2000/svg"><path d="M883 1056q0 13-10 23l-332 332 144 144q19 19 19 45t-19 45-45 19H192q-26 0-45-19t-19-45v-448q0-26 19-45t45-19 45 19l144 144 332-332q10-10 23-10t23 10l114 114q10 10 10 23zm781-864v448q0 26-19 45t-45 19-45-19l-144-144-332 332q-10 10-23 10t-23-10L919 759q-10-10-10-23t10-23l332-332-144-144q-19-19-19-45t19-45 45-19h448q26 0 45 19t19 45z"/></symbol><symbol viewBox="0 0 512 512" id="headphones" xmlns="http://www.w3.org/2000/svg"><path d="M482 225.04V225C482 100.934 380.617 0 256 0S30 100.934 30 225v.04C11.797 238.737 0 260.515 0 285v62c0 41.355 33.645 75 75 75h30c8.285 0 15-6.715 15-15V225c0-74.438 61.008-135 136-135 74.988 0 136 60.563 136 135v182c0 8.285 6.715 15 15 15h15v15c0 8.27-6.73 15-15 15h-77.578c-6.195-17.457-22.867-30-42.422-30h-61c-24.813 0-45 20.188-45 45s20.188 45 45 45h61c19.555 0 36.227-12.543 42.422-30H407c24.813 0 45-20.188 45-45v-16.508c34.191-6.969 60-37.273 60-73.492v-62c0-24.484-11.797-46.262-30-59.96zM287 482h-61c-8.27 0-15-6.73-15-15s6.73-15 15-15h61c8.27 0 15 6.73 15 15s-6.73 15-15 15zM90 392H75c-24.813 0-45-20.188-45-45v-62c0-24.813 20.188-45 45-45h15zM256 60c-87.219 0-157.777 67.223-165.309 150H75c-4.969 0-9.816.496-14.516 1.422C67.516 110.21 152.512 30 256 30s188.484 80.21 195.516 181.422A74.997 74.997 0 00437 210h-15.691C413.773 127.184 343.179 60 256 60zm226 287c0 24.813-20.188 45-45 45h-15V240h15c24.813 0 45 20.188 45 45zm0 0"/></symbol><symbol viewBox="0 0 512 512" id="info" xmlns="http://www.w3.org/2000/svg"><path d="M437.02 74.98C388.667 26.629 324.38 0 256 0S123.333 26.629 74.98 74.98C26.629 123.333 0 187.62 0 256s26.629 132.667 74.98 181.02C123.333 485.371 187.62 512 256 512s132.667-26.629 181.02-74.98C485.371 388.667 512 324.38 512 256s-26.629-132.667-74.98-181.02zM256 70c30.327 0 55 24.673 55 55s-24.673 55-55 55-55-24.673-55-55 24.673-55 55-55zm70 350H186v-30h30V240h-30v-30h110v180h30v30z"/></symbol><symbol viewBox="0 0 511 511.9" id="instagram" xmlns="http://www.w3.org/2000/svg"><path d="M510.95 150.5c-1.2-27.2-5.598-45.898-11.9-62.102-6.5-17.199-16.5-32.597-29.6-45.398-12.802-13-28.302-23.102-45.302-29.5-16.296-6.3-34.898-10.7-62.097-11.898C334.648.3 325.949 0 256.449 0s-78.199.3-105.5 1.5c-27.199 1.2-45.898 5.602-62.097 11.898-17.204 6.5-32.602 16.5-45.403 29.602-13 12.8-23.097 28.3-29.5 45.3-6.3 16.302-10.699 34.9-11.898 62.098C.75 177.801.449 186.5.449 256s.301 78.2 1.5 105.5c1.2 27.2 5.602 45.898 11.903 62.102 6.5 17.199 16.597 32.597 29.597 45.398 12.801 13 28.301 23.102 45.301 29.5 16.3 6.3 34.898 10.7 62.102 11.898 27.296 1.204 36 1.5 105.5 1.5s78.199-.296 105.5-1.5c27.199-1.199 45.898-5.597 62.097-11.898a130.934 130.934 0 0074.903-74.898c6.296-16.301 10.699-34.903 11.898-62.102 1.2-27.3 1.5-36 1.5-105.5s-.102-78.2-1.3-105.5zm-46.098 209c-1.102 25-5.301 38.5-8.801 47.5-8.602 22.3-26.301 40-48.602 48.602-9 3.5-22.597 7.699-47.5 8.796-27 1.204-35.097 1.5-103.398 1.5s-76.5-.296-103.403-1.5c-25-1.097-38.5-5.296-47.5-8.796C94.551 451.5 84.45 445 76.25 436.5c-8.5-8.3-15-18.3-19.102-29.398-3.5-9-7.699-22.602-8.796-47.5-1.204-27-1.5-35.102-1.5-103.403s.296-76.5 1.5-103.398c1.097-25 5.296-38.5 8.796-47.5C61.25 94.199 67.75 84.1 76.352 75.898c8.296-8.5 18.296-15 29.398-19.097 9-3.5 22.602-7.7 47.5-8.801 27-1.2 35.102-1.5 103.398-1.5 68.403 0 76.5.3 103.403 1.5 25 1.102 38.5 5.3 47.5 8.8 11.097 4.098 21.199 10.598 29.398 19.098 8.5 8.301 15 18.301 19.102 29.403 3.5 9 7.699 22.597 8.8 47.5 1.2 27 1.5 35.097 1.5 103.398s-.3 76.301-1.5 103.301zm0 0"/><path d="M256.45 124.5c-72.598 0-131.5 58.898-131.5 131.5s58.902 131.5 131.5 131.5c72.6 0 131.5-58.898 131.5-131.5s-58.9-131.5-131.5-131.5zm0 216.8c-47.098 0-85.302-38.198-85.302-85.3s38.204-85.3 85.301-85.3c47.102 0 85.301 38.198 85.301 85.3s-38.2 85.3-85.3 85.3zm167.402-222c0 16.954-13.747 30.7-30.704 30.7-16.953 0-30.699-13.746-30.699-30.7 0-16.956 13.746-30.698 30.7-30.698 16.956 0 30.703 13.742 30.703 30.699zm0 0"/></symbol><symbol viewBox="0 0 407.436 407.436" id="left-chevron" xmlns="http://www.w3.org/2000/svg"><path d="M315.869 21.178L294.621 0 91.566 203.718l203.055 203.718 21.248-21.178-181.945-182.54z"/></symbol><symbol viewBox="0 0 216.416 216.416" id="look" xmlns="http://www.w3.org/2000/svg"><path d="M215.912 105.503a8.004 8.004 0 00-.24-.555 119.486 119.486 0 00-43.191-48.758c-19.171-12.295-41.396-18.793-64.271-18.793s-45.101 6.499-64.272 18.795a119.49 119.49 0 00-43.085 48.54 7.5 7.5 0 00-.11 6.726 119.482 119.482 0 0043.192 48.766c19.172 12.297 41.398 18.796 64.275 18.796 22.876 0 45.102-6.499 64.273-18.795a119.485 119.485 0 0043.192-48.762 7.52 7.52 0 00.237-5.96zM108.21 164.019c-38.583 0-74.42-21.789-92.312-55.812C33.79 74.184 69.627 52.396 108.21 52.396c38.582 0 74.42 21.79 92.312 55.812-17.893 34.02-53.731 55.811-92.312 55.811z"/><path d="M108.209 75.291c-18.15 0-32.917 14.767-32.917 32.917s14.767 32.917 32.917 32.917 32.917-14.767 32.917-32.917-14.767-32.917-32.917-32.917zm0 50.834c-9.879 0-17.917-8.038-17.917-17.917s8.038-17.917 17.917-17.917 17.917 8.038 17.917 17.917-8.038 17.917-17.917 17.917z"/></symbol><symbol viewBox="0 0 512.032 512.032" id="map" xmlns="http://www.w3.org/2000/svg"><path d="M496.016 224c-8.832 0-16 7.168-16 16v181.184l-128 51.2V304c0-8.832-7.168-16-16-16s-16 7.168-16 16v168.352l-128-51.2V167.648l74.144 29.664c8.096 3.264 17.504-.704 20.8-8.928 3.296-8.192-.704-17.504-8.928-20.8l-95.776-38.336h-.032l-.256-.096a15.87 15.87 0 00-11.872 0l-.288.096h-.032L10.064 193.152A16.005 16.005 0 00.016 208v288c0 5.312 2.656 10.272 7.04 13.248a15.892 15.892 0 008.96 2.752c2.016 0 4.032-.384 5.952-1.152l154.048-61.6 153.76 61.504h.032l.288.128a15.87 15.87 0 0011.872 0l.288-.128h.032L502 446.88c6.016-2.464 10.016-8.32 10.016-14.88V240c0-8.832-7.168-16-16-16zm-336 197.152l-128 51.2V218.816l128-51.2v253.536zM400.016 64c-26.464 0-48 21.536-48 48s21.536 48 48 48 48-21.536 48-48-21.536-48-48-48zm0 64c-8.832 0-16-7.168-16-16s7.168-16 16-16 16 7.168 16 16-7.168 16-16 16z"/><path d="M400.016 0c-61.76 0-112 50.24-112 112 0 57.472 89.856 159.264 100.096 170.688 3.04 3.36 7.36 5.312 11.904 5.312s8.864-1.952 11.904-5.312C422.16 271.264 512.016 169.472 512.016 112c0-61.76-50.24-112-112-112zm0 247.584c-34.944-41.44-80-105.056-80-135.584 0-44.096 35.904-80 80-80s80 35.904 80 80c0 30.496-45.056 94.144-80 135.584z"/></symbol><symbol viewBox="0 0 512 512" id="map-locator" xmlns="http://www.w3.org/2000/svg"><path d="M256 0C153.755 0 70.573 83.182 70.573 185.426c0 126.888 165.939 313.167 173.004 321.035 6.636 7.391 18.222 7.378 24.846 0 7.065-7.868 173.004-194.147 173.004-321.035C441.425 83.182 358.244 0 256 0zm0 469.729c-55.847-66.338-152.035-197.217-152.035-284.301 0-83.834 68.202-152.036 152.035-152.036s152.035 68.202 152.035 152.035C408.034 272.515 311.861 403.37 256 469.729z"/><path d="M256 92.134c-51.442 0-93.292 41.851-93.292 93.293S204.559 278.72 256 278.72s93.291-41.851 93.291-93.293S307.441 92.134 256 92.134zm0 153.194c-33.03 0-59.9-26.871-59.9-59.901s26.871-59.901 59.9-59.901 59.9 26.871 59.9 59.901-26.871 59.901-59.9 59.901z"/></symbol><symbol viewBox="0 0 368 368" id="mat" xmlns="http://www.w3.org/2000/svg"><path d="M128 280c0-22.055-17.945-40-40-40s-40 17.945-40 40 17.945 40 40 40 40-17.945 40-40zm-64 0c0-13.23 10.77-24 24-24s24 10.77 24 24-10.77 24-24 24-24-10.77-24-24zm0 0"/><path d="M360 80H175.594C171.535 35.215 133.824 0 88 0 39.48 0 0 39.48 0 88v192c0 48.52 39.48 88 88 88h272c4.426 0 8-3.574 8-8V88c0-4.426-3.574-8-8-8zM16 88c0-39.703 32.305-72 72-72s72 32.297 72 72v141.559C144.062 206.887 117.762 192 88 192s-56.063 14.887-72 37.559zm0 192c0-39.703 32.305-72 72-72s72 32.297 72 72-32.305 72-72 72-72-32.297-72-72zm336 72h-32V248c0-4.426-3.574-8-8-8s-8 3.574-8 8v104H138.441C161.113 336.062 176 309.762 176 280V96h128v104c0 4.426 3.574 8 8 8s8-3.574 8-8V96h32zm0 0"/></symbol><symbol viewBox="0 0 512 512" id="mirror" xmlns="http://www.w3.org/2000/svg"><path d="M338.09 287.72c-2.63 0-5.2 1.06-7.07 2.93-1.86 1.86-2.93 4.44-2.93 7.07s1.07 5.21 2.93 7.07c1.87 1.859 4.44 2.93 7.07 2.93s5.21-1.07 7.07-2.93c1.87-1.86 2.93-4.44 2.93-7.07s-1.06-5.21-2.93-7.07a10.029 10.029 0 00-7.07-2.93z"/><path d="M256.127 44c-69.477 0-126 56.523-126 126v45.715c0 69.477 56.523 125.999 126 125.999 16.773 0 33.076-3.26 48.456-9.688 5.096-2.13 7.5-7.988 5.369-13.083-2.13-5.097-7.988-7.499-13.083-5.37-12.923 5.402-26.63 8.142-40.742 8.142-27.378 0-52.365-10.434-71.195-27.534l66.957-66.958c3.905-3.905 3.905-10.237 0-14.143-3.905-3.904-10.237-3.904-14.143 0l-66.309 66.31c-9.149-12.138-15.75-26.297-19.009-41.676L310.877 79.266a106.834 106.834 0 0131.501 29.185l-66.589 66.588c-3.905 3.905-3.906 10.237 0 14.143 1.953 1.952 4.512 2.929 7.071 2.929s5.119-.977 7.071-2.929l62.802-62.801c6.034 13.311 9.395 28.08 9.395 43.619v45.715c0 14.128-2.746 27.851-8.161 40.786-2.132 5.095.269 10.953 5.363 13.086 5.095 2.134 10.953-.269 13.086-5.363 6.444-15.395 9.711-31.715 9.711-48.509V170c0-69.477-56.523-126-126-126zm-106 167.73V170c0-58.448 47.551-106 106-106 12.477 0 24.453 2.173 35.58 6.15z"/><path d="M426.127 170c0-93.738-76.262-170-170-170s-170 76.262-170 170v45.715c0 71.548 45.227 135.857 112.541 160.028 6.659 2.391 10.707 9.102 9.625 15.956l-8.592 54.414a56.921 56.921 0 0012.967 45.916C223.512 504.721 239.306 512 256 512s32.488-7.279 43.333-19.971a56.921 56.921 0 0012.967-45.916l-8.578-54.329c-1.083-6.864 2.973-13.577 9.645-15.963 67.446-24.112 112.761-88.454 112.761-160.106V170zm-20 45.715c0 63.226-39.983 119.999-99.494 141.274-15.716 5.618-25.249 21.564-22.667 37.914l8.578 54.329a36.951 36.951 0 01-8.417 29.805C277.088 487.275 266.836 492 256 492s-21.088-4.725-28.127-12.963-10.107-19.102-8.417-29.805l8.592-54.414c2.578-16.328-6.936-32.267-22.621-37.899-59.394-21.326-99.299-78.071-99.299-141.204V170c0-82.71 67.29-150 150-150s150 67.29 150 150v45.715z"/><path d="M256 444.5c-2.63 0-5.21 1.069-7.07 2.93-1.86 1.86-2.93 4.44-2.93 7.07s1.07 5.21 2.93 7.069c1.86 1.86 4.44 2.931 7.07 2.931s5.21-1.07 7.07-2.931c1.86-1.859 2.93-4.439 2.93-7.069s-1.07-5.21-2.93-7.07-4.44-2.93-7.07-2.93zm210.384-106.767c-4.623 0-8.384-3.761-8.384-8.384 0-5.522-4.477-10-10-10s-10 4.478-10 10c0 4.623-3.761 8.384-8.384 8.384-5.523 0-10 4.478-10 10s4.477 10 10 10c4.623 0 8.384 3.762 8.384 8.385 0 5.522 4.477 10 10 10s10-4.478 10-10c0-4.623 3.761-8.385 8.384-8.385 5.523 0 10-4.478 10-10s-4.477-10-10-10zm-374-309.348c0-5.522-4.477-10-10-10C77.761 18.385 74 14.623 74 10c0-5.522-4.477-10-10-10S54 4.478 54 10c0 4.623-3.761 8.385-8.384 8.385-5.523 0-10 4.478-10 10s4.477 10 10 10c4.623 0 8.384 3.761 8.384 8.384 0 5.522 4.477 10 10 10s10-4.478 10-10c0-4.623 3.761-8.384 8.384-8.384 5.523 0 10-4.478 10-10z"/></symbol><symbol viewBox="0 0 51.512 51.512" id="phone-call" xmlns="http://www.w3.org/2000/svg"><path d="M49.202 5.582a7.832 7.832 0 00-.561-.443C45.412 2.704 40.448-.206 35.657.012c-8.022.37-18.684 11.196-21.761 14.506C10.82 17.829.801 29.253 1.019 37.273c.033 1.337.314 2.754.836 4.21 1.205 3.361 3.497 6.395 5.184 8.322 0 0 .353.415.523.575.435.403 1.07.722 1.941.975.445.129.914.157 1.228.157.35 0 1.028-.035 1.645-.265.844-.315 1.448-.676 1.854-1.108.297-.32 5.962-7.551 5.994-7.597l.036-.055a5.01 5.01 0 00.699-1.217 4.848 4.848 0 00.05-3.4 4.604 4.604 0 00-1.192-1.819l-2.66-2.485c-.25-.233-.509-.666-.546-.819a2.203 2.203 0 01-.04-.345L32.07 15.724a.297.297 0 01.101-.071l.061.023c.124.061.518.349.908.709l2.662 2.459c1.399 1.301 3.575 1.624 5.272.796.605-.295 1.057-.699 1.27-.886l.12-.097c.055-.048 6.736-6.136 6.987-6.409.629-.677.969-1.743 1.041-3.258.04-.842-.208-1.898-.589-2.511-.247-.394-.477-.689-.701-.897zm-1.923 4.593c-.346.341-6.415 5.882-6.733 6.172l-.247.204a2.625 2.625 0 01-.544.392c-.608.296-1.4.18-1.917-.3l-2.665-2.462c-.311-.288-1.107-.988-1.77-1.266a3.175 3.175 0 00-1.274-.272c-.854.03-1.65.392-2.251 1.03L14.223 30.519c-.595.641-.785 1.573-.564 2.771.171.926.871 1.929 1.449 2.469l2.665 2.489c.179.166.321.386.411.634a1.87 1.87 0 01-.019 1.294 2.065 2.065 0 01-.299.501 1.874 1.874 0 00-.111.157c-.537.693-5.424 6.911-5.708 7.248-.002.001-.167.148-.72.355a2.053 2.053 0 01-.595.075c-.207 0-.342-.023-.391-.038-.536-.156-.724-.285-.728-.285-.097-.097-.264-.299-.293-.333-1.539-1.759-3.594-4.467-4.64-7.386-.414-1.154-.636-2.254-.661-3.274-.149-5.479 6.413-14.541 12.076-20.635 5.662-6.095 14.221-13.3 19.7-13.552 3.95-.184 8.201 2.385 11.007 4.5l.108.081c.064.047.184.132.236.176.071.075.14.187.196.276.068.133.164.546.151.804-.043.886-.202 1.296-.214 1.329z"/></symbol><symbol viewBox="0 0 512 512" id="play-button" xmlns="http://www.w3.org/2000/svg"><path d="M256 0C114.833 0 0 114.844 0 256s114.833 256 256 256 256-114.844 256-256S397.167 0 256 0zm0 490.667C126.604 490.667 21.333 385.396 21.333 256S126.604 21.333 256 21.333 490.667 126.604 490.667 256 385.396 490.667 256 490.667z"/><path d="M357.771 247.031l-149.333-96c-3.271-2.135-7.5-2.25-10.875-.396A10.653 10.653 0 00192 160v192c0 3.906 2.125 7.49 5.563 9.365a10.68 10.68 0 005.104 1.302c2 0 4.021-.563 5.771-1.698l149.333-96c3.042-1.958 4.896-5.344 4.896-8.969s-1.854-7.01-4.896-8.969zm-144.438 85.427V179.542L332.271 256l-118.938 76.458z"/></symbol><symbol viewBox="0 0 1792 1792" id="quote-left" xmlns="http://www.w3.org/2000/svg"><path d="M832 960v384q0 80-56 136t-136 56H256q-80 0-136-56t-56-136V640q0-104 40.5-198.5T214 278t163.5-109.5T576 128h64q26 0 45 19t19 45v128q0 26-19 45t-45 19h-64q-106 0-181 75t-75 181v32q0 40 28 68t68 28h224q80 0 136 56t56 136zm896 0v384q0 80-56 136t-136 56h-384q-80 0-136-56t-56-136V640q0-104 40.5-198.5T1110 278t163.5-109.5T1472 128h64q26 0 45 19t19 45v128q0 26-19 45t-45 19h-64q-106 0-181 75t-75 181v32q0 40 28 68t68 28h224q80 0 136 56t56 136z"/></symbol><symbol viewBox="0 0 512 512" id="right-arrow" xmlns="http://www.w3.org/2000/svg"><path d="M506.134 241.843l-.018-.019-104.504-104c-7.829-7.791-20.492-7.762-28.285.068-7.792 7.829-7.762 20.492.067 28.284L443.558 236H20c-11.046 0-20 8.954-20 20s8.954 20 20 20h423.557l-70.162 69.824c-7.829 7.792-7.859 20.455-.067 28.284 7.793 7.831 20.457 7.858 28.285.068l104.504-104 .018-.019c7.833-7.818 7.808-20.522-.001-28.314z"/></symbol><symbol viewBox="0 0 407.436 407.436" id="right-chevron" xmlns="http://www.w3.org/2000/svg"><path d="M112.814 0L91.566 21.178l181.946 182.54-181.946 182.54 21.248 21.178 203.055-203.718z"/></symbol><symbol viewBox="0 0 1792 1792" id="rouble" xmlns="http://www.w3.org/2000/svg"><path d="M1299 565q0-100-65-162t-171-62H743v448h320q106 0 171-62t65-162zm237 0q0 193-126.5 315T1083 1002H743v118h505q14 0 23 9t9 23v128q0 14-9 23t-23 9H743v192q0 14-9.5 23t-22.5 9H544q-14 0-23-9t-9-23v-192H288q-14 0-23-9t-9-23v-128q0-14 9-23t23-9h224v-118H288q-14 0-23-9t-9-23V821q0-13 9-22.5t23-9.5h224V160q0-14 9-23t23-9h539q200 0 326.5 122T1536 565z"/></symbol><symbol viewBox="0 0 512.001 512.001" id="save" xmlns="http://www.w3.org/2000/svg"><path d="M466.395 88.411C395.95 69.109 325.091 39.054 261.478 1.496a10.765 10.765 0 00-10.95 0C185.08 40.133 118.05 68.562 45.605 88.411a10.769 10.769 0 00-7.924 10.388v110.046c0 113.323 52.279 188.335 96.137 231.306 47.216 46.265 102.216 71.85 122.185 71.85 19.967 0 74.967-25.585 122.183-71.85 43.857-42.97 96.133-117.982 96.133-231.306V98.798c0-4.852-3.244-9.106-7.924-10.387zm-13.616 120.433c0 105.843-48.761 175.838-89.669 215.92-46.431 45.495-96.074 65.695-107.107 65.695-11.033 0-60.679-20.2-107.111-65.695-40.907-40.083-89.67-110.077-89.67-215.92v-101.87C128.5 87.304 193.018 59.853 256.005 23.25c61.414 35.632 129.151 64.448 196.774 83.72v101.874z"/><path d="M160.538 105.769c-2.18-5.535-8.433-8.254-13.969-6.073a876.25 876.25 0 01-58.695 20.741 10.771 10.771 0 00-7.547 10.276v41.591c0 5.948 4.823 10.77 10.77 10.77s10.77-4.822 10.77-10.77v-33.72a897.813 897.813 0 0052.598-18.848c5.535-2.179 8.254-8.432 6.073-13.967zm20.459 2.043c1.445 0 2.912-.291 4.319-.905l.198-.086c5.449-2.388 7.903-8.731 5.515-14.178-2.39-5.449-8.769-7.914-14.212-5.528l-.174.075c-5.452 2.381-7.914 8.719-5.533 14.169 1.767 4.046 5.732 6.453 9.887 6.453zm203.325 239.471c-4.977-3.253-11.651-1.854-14.908 3.125-8.875 13.584-19.287 26.592-30.951 38.659a275.097 275.097 0 01-30.893 27.485c-4.729 3.606-5.639 10.364-2.034 15.095a10.758 10.758 0 008.572 4.241c2.278 0 4.573-.719 6.523-2.207a296.864 296.864 0 0033.317-29.642c12.611-13.044 23.881-27.124 33.499-41.849 3.255-4.98 1.854-11.654-3.125-14.907zm-101.764 86.16l-.618.364c-5.147 2.981-6.906 9.569-3.926 14.716a10.763 10.763 0 0014.716 3.924l.713-.419c5.133-3.006 6.857-9.603 3.851-14.736-3.008-5.131-9.606-6.852-14.736-3.849zm-99.969-199.424c-6.613-6.614-15.408-10.254-24.762-10.254s-18.15 3.641-24.766 10.254c-13.653 13.656-13.653 35.876 0 49.531l63.596 63.594c6.614 6.612 15.409 10.253 24.764 10.253s18.15-3.641 24.765-10.255L378.947 214.38c13.652-13.659 13.652-35.876-.002-49.527-6.614-6.614-15.409-10.254-24.765-10.254-9.355 0-18.15 3.641-24.765 10.254L221.42 272.848l-38.831-38.829zm162.058-53.934a13.395 13.395 0 019.534-3.946c3.604 0 6.988 1.401 9.535 3.946 5.255 5.255 5.255 13.809-.002 19.066l-132.759 132.76c-2.545 2.545-5.932 3.946-9.534 3.946s-6.989-1.401-9.535-3.946l-63.594-63.592c-5.257-5.257-5.257-13.811-.002-19.066 2.546-2.545 5.933-3.948 9.536-3.948s6.988 1.401 9.533 3.946l46.445 46.446c2.021 2.019 4.759 3.154 7.616 3.154s5.595-1.134 7.614-3.154l115.613-115.612z"/></symbol><symbol viewBox="0 0 56.966 56.966" id="search-icon" xmlns="http://www.w3.org/2000/svg"><path d="M55.146 51.887L41.588 37.786A22.926 22.926 0 0046.984 23c0-12.682-10.318-23-23-23s-23 10.318-23 23 10.318 23 23 23c4.761 0 9.298-1.436 13.177-4.162l13.661 14.208c.571.593 1.339.92 2.162.92.779 0 1.518-.297 2.079-.837a3.004 3.004 0 00.083-4.242zM23.984 6c9.374 0 17 7.626 17 17s-7.626 17-17 17-17-7.626-17-17 7.626-17 17-17z"/></symbol><symbol viewBox="0 0 64 64" id="solution" xmlns="http://www.w3.org/2000/svg"><path d="M54 1H40c-1.654 0-3 1.346-3 3v2c-2.206 0-4 1.794-4 4s1.794 4 4 4v5h8v-2c0-1.103.897-2 2-2s2 .897 2 2v2h5c1.654 0 3-1.346 3-3V4c0-1.654-1.346-3-3-3zm1 15c0 .551-.448 1-1 1h-3c0-2.206-1.794-4-4-4s-4 1.794-4 4h-4v-5h-2c-1.103 0-2-.897-2-2s.897-2 2-2h2V4c0-.551.448-1 1-1h14c.552 0 1 .449 1 1z"/><path d="M37 21c-2.206 0-4 1.794-4 4h-4v-5h-2c-1.103 0-2-.897-2-2s.897-2 2-2h2V7h-2.681C15.667 7 7 15.667 7 26.319a19.248 19.248 0 007.086 14.952L18 44.474v2.711a2.996 2.996 0 00-2 2.816c0 1.383.945 2.539 2.22 2.884-.139.345-.22.72-.22 1.115 0 1.322.865 2.434 2.054 2.833C20.468 60.301 23.423 63 27 63s6.532-2.699 6.946-6.167A2.995 2.995 0 0036 54c0-.395-.081-.77-.22-1.116A2.995 2.995 0 0038 50a2.996 2.996 0 00-2-2.816v-2.711l3.914-3.203A19.244 19.244 0 0047 26.319V25h-6c0-2.206-1.794-4-4-4zM26.319 9H27v5c-2.206 0-4 1.794-4 4s1.794 4 4 4v3h-4c0-2.206-1.794-4-4-4s-4 1.794-4 4H9.05c.676-8.936 8.163-16 17.269-16zM15.352 39.723A17.244 17.244 0 019.014 27H17v-2c0-1.103.897-2 2-2s2 .897 2 2v2h6v4c-2.206 0-4 1.794-4 4s1.794 4 4 4v8h-7v-3.474zM27 61a5.01 5.01 0 01-4.899-4h9.798A5.01 5.01 0 0127 61zm6-6H21a1.001 1.001 0 010-2h12a1.001 1.001 0 010 2zm2-4H19a1.001 1.001 0 010-2h16a1.001 1.001 0 010 2zm3.648-11.277L34 43.526V47h-5V37h-2c-1.103 0-2-.897-2-2s.897-2 2-2h2v-6h6v-2c0-1.103.897-2 2-2s2 .897 2 2v2h5.986a17.244 17.244 0 01-6.338 12.723z"/></symbol><symbol viewBox="0 0 512 512" id="sunsave" xmlns="http://www.w3.org/2000/svg"><path d="M306.384 219.541c0-4.19-2.613-7.937-6.546-9.385l-116.862-43.014c-2.23-.82-4.678-.82-6.908 0L59.205 210.155a10 10 0 00-6.546 9.385v74.305c0 37.197 12.213 73.343 35.32 104.527 21.697 29.284 52.013 52.683 87.667 67.668a10.069 10.069 0 007.75 0c35.656-14.988 65.972-38.387 87.669-67.668 23.105-31.184 35.318-67.329 35.318-104.527v-74.304zm-20 74.304c0 32.88-10.854 64.907-31.388 92.62-18.776 25.339-44.808 45.833-75.475 59.463-30.665-13.628-56.696-34.122-75.473-59.462-20.535-27.715-31.39-59.742-31.39-92.621v-67.329l106.862-39.332 106.862 39.333v67.328z"/><path d="M429.921 162.95c0-50.503-41.087-91.59-91.59-91.59-23.892 0-46.504 9.145-63.67 25.75-13.849 13.396-22.962 30.489-26.386 49.111l-65.299-24.034c-2.23-.82-4.678-.82-6.908 0l-158.809 58.45a10 10 0 00-6.546 9.385v103.442c0 46.42 15.124 91.367 43.736 129.981 28.609 38.611 68.89 68.374 116.488 86.072 2.72 1.011 5.632 2.481 8.584 2.481 2.953 0 5.867-1.472 8.588-2.482 33.207-12.348 62.667-30.414 87.561-53.696 4.033-3.772 4.245-10.101.473-14.135-3.773-4.031-10.101-4.245-14.135-.473-22.949 21.465-50.157 38.138-80.866 49.557-.437.163-1.158.598-1.62.598-.461 0-1.18-.434-1.616-.597-43.956-16.344-81.089-43.741-107.387-79.231-26.041-35.145-39.806-75.975-39.806-118.075v-96.467l148.809-54.77 148.809 54.77v96.467c0 27.609-5.879 54.587-17.475 80.183-2.278 5.03-.048 10.956 4.982 13.235 5.031 2.278 10.957.047 13.236-4.982 12.777-28.206 19.256-57.96 19.256-88.436v-39.463c45.816-4.998 81.591-43.922 81.591-91.051zm-81.59 70.904V190.02c0-4.19-2.613-7.937-6.546-9.385l-74.388-27.381c2.138-15.861 9.508-30.488 21.169-41.769 13.417-12.978 31.09-20.125 49.765-20.125 39.475 0 71.59 32.115 71.59 71.59 0 36.087-26.831 66.025-61.59 70.904zM338.33 52.328c5.522 0 10-4.478 10-10V10c0-5.522-4.478-10-10-10s-10 4.478-10 10v32.328c0 5.523 4.478 10 10 10zm-92.366 32.401c1.953 1.952 4.512 2.929 7.071 2.929s5.118-.977 7.071-2.929c3.905-3.905 3.905-10.237 0-14.143l-22.859-22.859c-3.906-3.904-10.236-3.904-14.143 0-3.905 3.905-3.905 10.237 0 14.143zm184.735 156.45c-3.905-3.903-10.235-3.904-14.143 0-3.905 3.905-3.905 10.237 0 14.143l22.859 22.86c1.953 1.952 4.512 2.929 7.071 2.929s5.118-.977 7.071-2.929c3.905-3.905 3.905-10.237 0-14.143zm-7.071-153.521a9.97 9.97 0 007.071-2.929l22.859-22.859c3.905-3.905 3.905-10.237 0-14.143-3.906-3.904-10.236-3.904-14.143 0l-22.859 22.859c-3.905 3.905-3.905 10.237 0 14.143a9.97 9.97 0 007.072 2.929zm67.659 65.297h-32.328c-5.522 0-10 4.478-10 10s4.478 10 10 10h32.328c5.522 0 10-4.478 10-10s-4.477-10-10-10z"/><path d="M137.619 306.873c-3.906-3.904-10.236-3.904-14.143 0-3.905 3.905-3.905 10.237 0 14.143l33.771 33.771c3.854 3.852 10.289 3.852 14.143 0l74.816-74.816c3.905-3.905 3.905-10.237 0-14.143-3.906-3.904-10.236-3.904-14.143 0l-67.745 67.746zM307.7 411.05c-2.095-5.026-8.022-7.502-13.061-5.41-5.035 2.09-7.49 8.024-5.41 13.061 2.079 5.034 8.031 7.497 13.061 5.409 5.049-2.096 7.478-8.013 5.41-13.06z"/></symbol><symbol viewBox="0 0 24 24" id="telegram" xmlns="http://www.w3.org/2000/svg"><path d="M.415 11.196l5.869 2.925a.752.752 0 00.712-.023l5.224-3.037-3.162 2.802a.751.751 0 00-.253.562v6.825c0 .72.919 1.023 1.35.451l2.537-3.373 6.274 3.573a.75.75 0 001.106-.504l3.913-19.5a.75.75 0 00-1.008-.846L.477 9.826a.75.75 0 00-.062 1.37zm21.83-8.249l-3.439 17.137-5.945-3.386a.752.752 0 00-.971.201l-1.585 2.107v-4.244l8.551-7.576c.677-.599-.101-1.664-.874-1.21l-11.39 6.622L2.6 10.609z"/></symbol><symbol viewBox="0 0 512 512" id="termo" xmlns="http://www.w3.org/2000/svg"><path d="M296 317.139V70c0-38.598-31.402-70-70-70s-70 31.402-70 70v247.139c-25.486 20.986-40 51.634-40 84.861 0 60.654 49.346 110 110 110s110-49.346 110-110c0-33.228-14.514-63.875-40-84.861zM226 492c-49.626 0-90-40.374-90-90 0-28.577 13.124-54.824 36.006-72.012a10 10 0 003.994-7.996V70c0-27.57 22.43-50 50-50s50 22.43 50 50v251.993a10 10 0 003.994 7.996C302.876 347.176 316 373.423 316 402c0 49.626-40.374 90-90 90zM326 60h60c5.522 0 10-4.477 10-10s-4.478-10-10-10h-60c-5.522 0-10 4.477-10 10s4.478 10 10 10zm0 60h40c5.522 0 10-4.477 10-10s-4.478-10-10-10h-40c-5.522 0-10 4.477-10 10s4.478 10 10 10zm60 40h-60c-5.522 0-10 4.477-10 10s4.478 10 10 10h60c5.522 0 10-4.477 10-10s-4.478-10-10-10z"/><path d="M326 240h40c5.522 0 10-4.477 10-10s-4.478-10-10-10h-40c-5.522 0-10 4.477-10 10s4.478 10 10 10zm60 40h-60c-5.522 0-10 4.477-10 10s4.478 10 10 10h60c5.522 0 10-4.477 10-10s-4.478-10-10-10zm-150 73.006V70c0-5.523-4.477-10-10-10s-10 4.477-10 10v283.006c-22.795 4.646-40 24.848-40 48.994 0 27.57 22.43 50 50 50s50-22.43 50-50c0-24.146-17.205-44.348-40-48.994z"/></symbol><symbol viewBox="0 0 477.867 477.867" id="time" xmlns="http://www.w3.org/2000/svg"><path d="M238.933 0C106.974 0 0 106.974 0 238.933s106.974 238.933 238.933 238.933 238.933-106.974 238.933-238.933C477.726 107.033 370.834.141 238.933 0zm0 443.733c-113.108 0-204.8-91.692-204.8-204.8s91.692-204.8 204.8-204.8 204.8 91.692 204.8 204.8c-.122 113.058-91.742 204.678-204.8 204.8z"/><path d="M238.933 85.333c-9.426 0-17.067 7.641-17.067 17.067v119.467H102.4c-9.426 0-17.067 7.641-17.067 17.067S92.974 256 102.4 256h136.533c9.426 0 17.067-7.641 17.067-17.067V102.4c0-9.426-7.641-17.067-17.067-17.067z"/></symbol><symbol viewBox="0 0 1792 1792" id="times" xmlns="http://www.w3.org/2000/svg"><path d="M1490 1322q0 40-28 68l-136 136q-28 28-68 28t-68-28l-294-294-294 294q-28 28-68 28t-68-28l-136-136q-28-28-28-68t28-68l294-294-294-294q-28-28-28-68t28-68l136-136q28-28 68-28t68 28l294 294 294-294q28-28 68-28t68 28l136 136q28 28 28 68t-28 68l-294 294 294 294q28 28 28 68z"/></symbol><symbol viewBox="0 0 24 24" id="viber" xmlns="http://www.w3.org/2000/svg"><path d="M23.155 13.893c.716-6.027-.344-9.832-2.256-11.553l.001-.001C17.814-.6 7.392-1.035 3.7 2.471 2.042 4.186 1.458 6.703 1.394 9.819c-.064 3.117-.14 8.956 5.301 10.54H6.7l-.005 2.419s-.037.98.589 1.177c.716.232 1.04-.223 3.267-2.883 3.724.323 6.584-.417 6.909-.525.752-.252 5.007-.815 5.695-6.654zM10.918 19.37s-2.357 2.939-3.09 3.702c-.24.248-.503.225-.499-.267 0-.323.018-4.016.018-4.016-4.613-1.322-4.341-6.294-4.291-8.895.05-2.602.526-4.733 1.93-6.168C8.225.689 17.362 1.368 19.69 3.556c2.846 2.523 1.833 9.651 1.839 9.894-.585 4.874-4.033 5.183-4.667 5.394-.271.09-2.786.737-5.944.526z"/><path d="M12.222 4.297c-.385 0-.385.6 0 .605 2.987.023 5.447 2.105 5.474 5.924 0 .403.59.398.585-.005h-.001c-.032-4.115-2.718-6.501-6.058-6.524z"/><path d="M16.151 10.193c-.009.398.58.417.585.014.049-2.269-1.35-4.138-3.979-4.335-.385-.028-.425.577-.041.605 2.28.173 3.481 1.729 3.435 3.716zm-.63 2.581c-.494-.286-.997-.108-1.205.173l-.435.563c-.221.286-.634.248-.634.248-3.014-.797-3.82-3.951-3.82-3.951s-.037-.427.239-.656l.544-.45c.272-.216.444-.736.167-1.247-.74-1.337-1.237-1.798-1.49-2.152-.266-.333-.666-.408-1.082-.183h-.009c-.865.506-1.812 1.453-1.509 2.428.517 1.028 1.467 4.305 4.495 6.781 1.423 1.171 3.675 2.371 4.631 2.648l.009.014c.942.314 1.858-.67 2.347-1.561v-.007c.217-.431.145-.839-.172-1.106-.562-.548-1.41-1.153-2.076-1.542z"/><path d="M13.169 8.104c.961.056 1.427.558 1.477 1.589.018.403.603.375.585-.028-.064-1.346-.766-2.096-2.03-2.166-.385-.023-.421.582-.032.605z"/></symbol><symbol viewBox="0 0 27 30" id="video-icon" xmlns="http://www.w3.org/2000/svg"><path fill-rule="evenodd" d="M26.234 14.735L.961 29.642.688.302l25.546 14.433z"/></symbol><symbol viewBox="0 0 512 512" id="vinil" xmlns="http://www.w3.org/2000/svg"><path d="M437.02 74.98C388.668 26.629 324.38 0 256 0c-56.329 0-109.767 17.942-154.534 51.887-30.833 23.379-56.368 53.923-73.846 88.329C9.293 176.297 0 215.252 0 256c0 68.38 26.629 132.667 74.98 181.02C123.332 485.371 187.62 512 256 512s132.668-26.629 181.02-74.98C485.371 388.667 512 324.38 512 256s-26.629-132.667-74.98-181.02zM256 497C123.112 497 15 388.888 15 256c0-76.087 34.818-146.127 95.528-192.161C152.667 31.888 202.971 15 256 15c132.888 0 241 108.112 241 241S388.888 497 256 497z"/><path d="M448.01 216.54a195.073 195.073 0 00-11.44-36.77 196.767 196.767 0 00-18.09-33.29 197.827 197.827 0 00-52.96-52.96 196.026 196.026 0 00-33.29-18.09c-11.83-5.01-24.2-8.86-36.77-11.44A196.611 196.611 0 00256 60h-.01c-16.181 0-32.221 1.95-47.681 5.8a193.473 193.473 0 00-44.37 17.08c-1.77.95-3.06 2.52-3.64 4.44s-.38 3.94.56 5.71a7.49 7.49 0 006.62 3.97c1.221 0 2.44-.31 3.53-.89C197.229 82.1 225.819 75 256 75c48.26 0 93.689 18.85 127.92 53.08C418.149 162.31 437 207.74 437 256s-18.851 93.69-53.08 127.92C349.689 418.15 304.26 437 256 437s-93.69-18.85-127.92-53.08C93.85 349.69 75 304.26 75 256c0-6.22.31-12.49.939-18.65 5.09-50.27 30.25-94.91 70.84-125.7 3.29-2.5 3.94-7.21 1.44-10.51a7.462 7.462 0 00-5.979-2.97c-1.641 0-3.2.53-4.511 1.52-.01 0-.01.01-.01.01-10.87 8.24-20.88 17.57-29.75 27.73a194.53 194.53 0 00-23.04 32.59 193.992 193.992 0 00-15.81 36.47 195.916 195.916 0 00-8.11 39.36c-.01.06-.01.13-.02.2C60.34 242.6 60 249.32 60 256c0 13.28 1.35 26.55 3.99 39.46a195.07 195.07 0 0011.439 36.77 196.767 196.767 0 0018.09 33.29 198.582 198.582 0 0023.95 29.01 197.88 197.88 0 0029.01 23.95 196.102 196.102 0 0033.29 18.09 195.06 195.06 0 0036.771 11.44c12.91 2.64 26.18 3.99 39.46 3.99 13.279 0 26.55-1.35 39.46-3.99a195.119 195.119 0 0036.77-11.44c11.61-4.92 22.811-11 33.29-18.09a197.827 197.827 0 0029.01-23.95 198.454 198.454 0 0023.95-29.01 196.767 196.767 0 0018.09-33.29 195 195 0 0011.44-36.77c2.65-12.91 3.99-26.18 3.99-39.46 0-13.28-1.34-26.55-3.99-39.46z"/><path d="M408.93 191.44c-4.17-9.83-9.32-19.32-15.32-28.19a168 168 0 00-20.279-24.58 168.06 168.06 0 00-24.58-20.28c-8.87-6-18.36-11.16-28.19-15.32C300.1 94.4 278.38 90 256 90h-.061c-18.14 0-35.93 2.88-52.87 8.57-16.939 5.69-32.829 14.11-47.229 25.03a7.488 7.488 0 00-2.97 5.94 7.401 7.401 0 001.529 4.57 7.44 7.44 0 005.981 2.97 7.49 7.49 0 004.53-1.52c26.36-19.98 57.86-30.55 91.09-30.56 40.26 0 78.16 15.73 106.72 44.28C391.27 177.84 407 215.74 407 256s-15.73 78.16-44.28 106.72C334.16 391.27 296.26 407 256 407s-78.16-15.73-106.721-44.28C120.729 334.16 105 296.26 105 256c.01-37.62 13.8-73.55 38.83-101.16 1.34-1.49 2.029-3.41 1.93-5.41s-.97-3.84-2.45-5.18a7.454 7.454 0 00-5.04-1.95c-2.109 0-4.14.9-5.55 2.46-13.7 15.1-24.35 32.36-31.65 51.3C93.72 215.12 90 235.29 90 256c0 22.38 4.399 44.1 13.069 64.56 4.16 9.83 9.32 19.32 15.32 28.19a168.07 168.07 0 0020.28 24.58c7.52 7.51 15.78 14.34 24.58 20.28 8.87 6 18.359 11.16 28.189 15.32C211.899 417.6 233.62 422 256 422s44.1-4.4 64.56-13.07c9.83-4.16 19.32-9.32 28.19-15.32 8.79-5.94 17.06-12.77 24.58-20.28 7.51-7.52 14.34-15.79 20.279-24.58 6-8.87 11.15-18.36 15.32-28.19C417.6 300.1 421.99 278.38 422 256c-.01-22.38-4.4-44.1-13.07-64.56z"/><path d="M381.29 203.11c-3.41-8.06-7.63-15.83-12.55-23.1a136.942 136.942 0 00-16.62-20.13 136.93 136.93 0 00-20.13-16.62 135.526 135.526 0 00-23.101-12.55C292.13 123.61 274.33 120 256 120h-.021c-19.109 0-37.52 3.84-54.72 11.42a7.484 7.484 0 00-3.97 4.15 7.457 7.457 0 00.13 5.74 7.507 7.507 0 006.87 4.48c1.04 0 2.06-.22 3.02-.64C222.59 138.42 238.97 135 256 135c32.26 0 62.63 12.6 85.52 35.48C364.399 193.37 377 223.74 377 256s-12.601 62.63-35.48 85.52C318.63 364.4 288.26 377 256 377s-62.63-12.6-85.521-35.48C147.6 318.63 135 288.25 135 256c.02-38.15 17.49-73.31 47.93-96.46.04-.03.07-.05.1-.08.011 0 .011 0 .011-.01a7.431 7.431 0 002.96-5.93 7.477 7.477 0 00-1.521-4.57 7.467 7.467 0 00-5.989-2.97c-1.641 0-3.211.53-4.521 1.53a138.65 138.65 0 00-22.89 21.86 136.04 136.04 0 00-16.95 26.03 135.01 135.01 0 00-10.521 29.21A136.968 136.968 0 00120 256c0 18.33 3.609 36.13 10.71 52.89 3.41 8.06 7.63 15.83 12.55 23.1 4.87 7.2 10.46 13.98 16.61 20.13a137.378 137.378 0 0020.14 16.62c7.27 4.92 15.04 9.14 23.1 12.55C219.87 388.39 237.66 392 256 392c18.33 0 36.13-3.61 52.89-10.71 8.061-3.41 15.83-7.63 23.101-12.55a136.983 136.983 0 0020.13-16.62 136.942 136.942 0 0016.62-20.13c4.92-7.27 9.14-15.04 12.55-23.1C388.39 292.13 392 274.33 392 256s-3.61-36.13-10.71-52.89z"/><path d="M256 150c-23.332 0-45.43 7.405-63.904 21.413C165.343 191.698 150 222.528 150 256c0 58.449 47.552 106 106 106s106-47.551 106-106-47.552-106-106-106zm0 197c-50.178 0-91-40.822-91-91 0-28.736 13.18-55.21 36.158-72.634C217.004 171.351 235.968 165 256 165c50.178 0 91 40.822 91 91s-40.822 91-91 91z"/><path d="M256 233.5c-4.96 0-9.631 1.554-13.503 4.492-5.718 4.334-8.997 10.897-8.997 18.008 0 12.407 10.094 22.5 22.5 22.5s22.5-10.093 22.5-22.5-10.094-22.5-22.5-22.5zm0 30c-4.136 0-7.5-3.364-7.5-7.5 0-2.409 1.086-4.559 3.061-6.056 1.263-.958 2.757-1.444 4.439-1.444 4.136 0 7.5 3.364 7.5 7.5s-3.364 7.5-7.5 7.5z"/><path d="M480.12 226.9c-3.62-27.82-12.2-54.32-25.511-78.76-12.859-23.62-29.71-44.6-50.09-62.36-41.279-35.98-93.97-55.79-148.37-55.8-9.699 0-19.55.64-29.25 1.9-19.33 2.51-38.159 7.43-55.96 14.63a222.868 222.868 0 00-49.92 28.14 7.477 7.477 0 00-2.93 4.93c-.29 1.98.22 3.96 1.42 5.57 1.43 1.91 3.62 3 6.01 3 1.63 0 3.181-.51 4.48-1.49 29.09-21.74 62.34-35.16 98.83-39.9 9.069-1.18 18.26-1.78 27.319-1.78h.021c105.6 0 195.479 79.04 209.07 183.85 1.18 9.05 1.77 18.25 1.77 27.33.01 105.61-79.02 195.49-183.84 209.08a212.363 212.363 0 01-27.34 1.77c-56 0-110.811-23.07-150.38-63.29-32.44-32.99-52.73-74.67-58.69-120.55-1.2-9.22-1.81-18.56-1.81-27.75.01-56.57 22.42-109.79 63.1-149.88a7.414 7.414 0 002.229-5.37c0-1.97-.77-3.83-2.149-5.23a7.424 7.424 0 00-5.351-2.24c-1.979 0-3.85.77-5.26 2.16a230.398 230.398 0 00-29 34.78 225.455 225.455 0 00-21.18 39.08A223.88 223.88 0 0034.358 211a225.459 225.459 0 00-4.409 44.42c0 9.84.649 19.83 1.93 29.68 3.22 24.78 10.42 48.62 21.41 70.86 10.62 21.5 24.569 41.11 41.47 58.28a227.767 227.767 0 0072.84 49.7 225.753 225.753 0 0042.74 13.42 224.889 224.889 0 0045.5 4.65c9.72 0 19.56-.63 29.26-1.89 27.811-3.62 54.311-12.2 78.76-25.51 23.61-12.86 44.591-29.71 62.351-50.09 35.979-41.28 55.8-93.97 55.8-148.36 0-9.73-.64-19.58-1.89-29.26z"/></symbol><symbol viewBox="0 0 24 24" id="vk" xmlns="http://www.w3.org/2000/svg"><path d="M19.915 13.028c-.388-.49-.277-.708 0-1.146.005-.005 3.208-4.431 3.538-5.932l.002-.001c.164-.547 0-.949-.793-.949h-2.624c-.668 0-.976.345-1.141.731 0 0-1.336 3.198-3.226 5.271-.61.599-.892.791-1.225.791-.164 0-.419-.192-.419-.739V5.949c0-.656-.187-.949-.74-.949H9.161c-.419 0-.668.306-.668.591 0 .622.945.765 1.043 2.515v3.797c0 .832-.151.985-.486.985-.892 0-3.057-3.211-4.34-6.886-.259-.713-.512-1.001-1.185-1.001H.9c-.749 0-.9.345-.9.731 0 .682.892 4.073 4.148 8.553C6.318 17.343 9.374 19 12.154 19c1.671 0 1.875-.368 1.875-1.001 0-2.922-.151-3.198.686-3.198.388 0 1.056.192 2.616 1.667C19.114 18.217 19.407 19 20.405 19h2.624c.748 0 1.127-.368.909-1.094-.499-1.527-3.871-4.668-4.023-4.878z"/></symbol><symbol viewBox="-23 -21 682 682.667" id="whatsapp" xmlns="http://www.w3.org/2000/svg"><path d="M544.387 93.008C484.512 33.063 404.883.035 320.05 0 145.246 0 2.98 142.262 2.91 317.113c-.024 55.895 14.577 110.457 42.331 158.551L.25 640l168.121-44.102c46.324 25.27 98.477 38.586 151.55 38.602h.134c174.785 0 317.066-142.273 317.132-317.133.036-84.742-32.921-164.418-92.8-224.36zM320.05 580.94h-.11c-47.296-.02-93.683-12.73-134.16-36.742l-9.62-5.715-99.766 26.172 26.628-97.27-6.27-9.972c-26.386-41.969-40.32-90.476-40.296-140.281.055-145.332 118.305-263.57 263.7-263.57 70.406.023 136.59 27.476 186.355 77.3s77.156 116.051 77.133 186.485C583.582 462.69 465.34 580.94 320.05 580.94zm144.586-197.418c-7.922-3.968-46.883-23.132-54.149-25.78-7.258-2.645-12.547-3.962-17.824 3.968-5.285 7.93-20.469 25.781-25.094 31.066-4.625 5.29-9.242 5.953-17.168 1.985-7.925-3.965-33.457-12.336-63.726-39.332-23.555-21.012-39.457-46.961-44.082-54.89-4.617-7.938-.04-11.813 3.476-16.173 8.578-10.652 17.168-21.82 19.809-27.105 2.644-5.29 1.32-9.918-.664-13.883-1.977-3.965-17.824-42.969-24.426-58.84-6.437-15.445-12.965-13.36-17.832-13.601-4.617-.231-9.902-.278-15.187-.278-5.282 0-13.868 1.98-21.133 9.918-7.262 7.934-27.73 27.102-27.73 66.106s28.394 76.683 32.355 81.972c3.96 5.29 55.879 85.328 135.367 119.649 18.906 8.172 33.664 13.043 45.176 16.695 18.984 6.031 36.254 5.18 49.91 3.14 15.226-2.277 46.879-19.171 53.488-37.68 6.602-18.51 6.602-34.374 4.617-37.683-1.976-3.304-7.261-5.285-15.183-9.254zm0 0" fill-rule="evenodd"/></symbol><symbol viewBox="-21 -117 682.667 682" id="youtube" xmlns="http://www.w3.org/2000/svg"><path d="M626.813 64.035c-7.375-27.418-28.993-49.031-56.407-56.414C520.324-6.082 319.992-6.082 319.992-6.082s-200.324 0-250.406 13.184c-26.887 7.375-49.031 29.52-56.406 56.933C0 114.113 0 217.97 0 217.97s0 104.379 13.18 153.933c7.382 27.414 28.992 49.028 56.41 56.41C120.195 442.02 320 442.02 320 442.02s200.324 0 250.406-13.184c27.418-7.379 49.032-28.992 56.414-56.406 13.176-50.082 13.176-153.934 13.176-153.934s.527-104.383-13.183-154.46zM256.21 313.915V122.022l166.586 95.946zm0 0"/></symbol><symbol viewBox="0 0 512 512" id="zoom" xmlns="http://www.w3.org/2000/svg"><path d="M289.8 200.2h-49.3v-49.3c0-11.3-9.1-20.4-20.4-20.4-11.3 0-20.4 9.1-20.4 20.4v49.3h-49.3c-11.3 0-20.4 9.1-20.4 20.4 0 11.3 9.1 20.4 20.4 20.4h49.3v49.3c0 11.3 9.1 20.4 20.4 20.4 11.3 0 20.4-9.1 20.4-20.4V241h49.3c11.3 0 20.4-9.1 20.4-20.4 0-11.3-9.2-20.4-20.4-20.4z"/><path d="M220.2 388.7C127.3 388.7 52 313.5 52 220.6S127.3 52.5 220.2 52.5s168.1 75.3 168.1 168.1S313 388.7 220.2 388.7zm274.8 78L381.7 353.4c29.7-36.1 47.6-82.4 47.6-132.8 0-115.5-93.6-209.2-209.2-209.2S11 105.1 11 220.6s93.6 209.2 209.2 209.2c50.4 0 96.6-17.8 132.7-47.5l113.3 113.3c5.2 5.3 21.1 7.9 28.9 0 7.9-8 7.9-20.9-.1-28.9z"/></symbol></svg>