<svg id="Layer_5" height="512" viewBox="0 0 64 64" width="512" xmlns="http://www.w3.org/2000/svg"><path d="M31.524 41a6.932 6.932 0 004.934-2.044L44.414 31H49c1.654 0 3-1.346 3-3v-2c0-.92-.425-1.735-1.08-2.286A3.97 3.97 0 0052 21v-1.791c0-.68.322-1.293.862-1.64A8.966 8.966 0 0057 10a9.012 9.012 0 00-3.006-6.714 9.054 9.054 0 00-7.039-2.228c-4.051.458-7.365 3.723-7.88 7.763-.447 3.51 1.118 6.867 4.084 8.762.518.331.84.97.84 1.667v1.957a3.863 3.863 0 00-1.558.938L40 24.586l-8.026 8.025c-1.117-.991-3.355-2.792-5.658-3.559a20.515 20.515 0 00-3.63-.832c-.961-.136-1.686-.985-1.686-1.975v-1.328a8.042 8.042 0 003.411-3.918H25c2.206 0 4-1.794 4-4 0-.855-.275-1.645-.734-2.296l.01-.021A6.872 6.872 0 0029 11.618a6.82 6.82 0 00-3.789-6.131l-.222-.111C24.928 2.954 22.949 1 20.513 1H14c-3.716 0-6.766 2.911-6.987 6.573l-.196.196A6.167 6.167 0 005 12.155c0 .668.107 1.328.318 1.962l.273.819A3.96 3.96 0 005 17c0 2.206 1.794 4 4 4h.589A8.042 8.042 0 0013 24.918v1.434a2.002 2.002 0 01-1.752 1.984l-2.829.354a8.51 8.51 0 00-4.938 2.416A8.409 8.409 0 001 37.094V53c0 1.654 1.346 3 3 3h2c.352 0 .686-.072 1-.184V63h20V39.503l1.184.646a6.997 6.997 0 003.34.851zM50 21c0 .908-.613 1.669-1.444 1.912A3.866 3.866 0 0046 21.09V21zM41.06 9.074c.4-3.137 2.974-5.672 6.12-6.027a6.929 6.929 0 015.481 1.73A7.014 7.014 0 0155 10a6.976 6.976 0 01-3.22 5.888c-1.057.679-1.703 1.833-1.768 3.112h-4.028c-.074-1.291-.711-2.439-1.749-3.103-2.307-1.474-3.524-4.088-3.175-6.823zm2.796 14.485A1.92 1.92 0 0145.204 23c.727 0 1.38.403 1.705 1.054l.473.946H49c.551 0 1 .448 1 1v2c0 .552-.449 1-1 1h-4.586l-3-3zM20.739 33.711l-2.398-1.919 1.827-2.742.06.058zm-1.81 8.946L17 44.586l-1.929-1.929 1.506-9.038.423-.338.423.338zm-5.17-13.434c.038-.037.078-.071.115-.109l1.785 2.678-2.398 1.919zM25 19h-.069c.041-.328.069-.661.069-1v-3c1.103 0 2 .897 2 2s-.897 2-2 2zM9 19c-1.103 0-2-.897-2-2s.897-2 2-2v3c0 .339.028.672.069 1zm.016-6H9a3.96 3.96 0 00-1.794.444 4.184 4.184 0 011.025-4.262L9 8.414V8c0-2.757 2.243-5 5-5h6.513A2.49 2.49 0 0123 5.487c0 1.072-.684 2.02-1.7 2.358l-.616.205.632 1.898.616-.206a4.478 4.478 0 002.625-2.325 4.822 4.822 0 012.108 5.957A3.966 3.966 0 0025 13v-2h-4.528c-2.772 0-5.547-.655-8.025-1.895L12 8.882l-.447.224A4.586 4.586 0 009.016 13zM11 18v-4.764c0-.842.395-1.611 1.054-2.101A20.036 20.036 0 0020.472 13H23v5c0 3.309-2.691 6-6 6s-6-2.691-6-6zm6 8c.692 0 1.359-.097 2-.263v.508c0 .279.036.55.091.815L17 30.197l-2.069-3.104c.045-.241.069-.489.069-.741v-.615A7.953 7.953 0 0017 26zM4.895 32.52a6.5 6.5 0 013.772-1.846l2.829-.354c.046-.006.087-.022.132-.029l-.889 7.998 3.499-2.799-1.309 7.853L17 47.414l4.071-4.071-1.309-7.853 3.499 2.799-.9-8.1c.016.003.031.009.048.011 1.181.166 2.283.417 3.275.748 2.04.68 4.139 2.419 5.088 3.272l-.666 1.333 1.789.895.927-1.855L40 27.414 42.586 30l-7.542 7.542A4.945 4.945 0 0131.524 39c-.83 0-1.654-.21-2.383-.607l-2.124-1.158a2.39 2.39 0 01.69-1.527l-1.415-1.414A4.383 4.383 0 0025 37.414V49H10.873a2.944 2.944 0 00-.733-1.274L9 46.586v-9.172a4.387 4.387 0 00-1.292-3.121l-1.415 1.414A2.4 2.4 0 017 37.414V46H3v-8.906c0-1.703.691-3.37 1.895-4.574zM6 54H4c-.551 0-1-.448-1-1v-5h4.586l1.14 1.14a.945.945 0 01.274.663.932.932 0 01-.518.838L7 51.382V53c0 .552-.449 1-1 1zm12 7v-2.838c0-1.46.931-2.751 2.316-3.214l-.633-1.896a5.383 5.383 0 00-2.684 1.985 5.373 5.373 0 00-2.684-1.985l-.633 1.896A3.385 3.385 0 0116 58.162V61H9v-8.382l.376-.188c.624-.312 1.1-.82 1.371-1.43H25v10z"/><path d="M52.707 7.707l-1.414-1.414L46 11.586l-1.293-1.293-1.414 1.414L46 14.414zM46 51v-1.586A2.417 2.417 0 0043.586 47c-.635 0-1.257.258-1.707.707L38.586 51H34c-1.654 0-3 1.346-3 3v4c0 1.654 1.346 3 3 3h12c1.654 0 3-1.346 3-3v-4c0-1.654-1.346-3-3-3zm1 7c0 .552-.449 1-1 1H34c-.551 0-1-.448-1-1v-4c0-.552.449-1 1-1h5.414l3.878-3.878c.241-.241.708-.045.708.292V53h2c.551 0 1 .448 1 1z"/><path d="M35 55h10v2H35zm25-22H48c-1.654 0-3 1.346-3 3v4c0 1.654 1.346 3 3 3v1.586A2.417 2.417 0 0050.414 47c.635 0 1.257-.258 1.707-.707L55.414 43H60c1.654 0 3-1.346 3-3v-4c0-1.654-1.346-3-3-3zm1 7c0 .552-.449 1-1 1h-5.414l-3.878 3.878c-.241.241-.708.045-.708-.292V41h-2c-.551 0-1-.448-1-1v-4c0-.552.449-1 1-1h12c.551 0 1 .448 1 1z"/><path d="M49 37h10v2H49z"/></svg>