<svg id="Capa_1" height="512" width="512" xmlns="http://www.w3.org/2000/svg"><circle cx="382" cy="501.999" r="10"/><path d="M502 132H392V82c0-5.522-4.478-10-10-10H266V10c0-5.522-4.478-10-10-10H10C4.477 0 0 4.478 0 10v372c0 5.522 4.477 10 10 10h116v50c0 5.522 4.477 10 10 10h116v50c0 5.522 4.478 10 10 10h75c5.522 0 10-4.478 10-10s-4.478-10-10-10h-65v-92.143c3.981 5.077 8.052 11.754 11.461 17.347C293.888 434.312 304.669 452 322 452s28.112-17.688 38.539-34.796C367.022 406.567 375.901 392 382 392s14.978 14.567 21.461 25.204C413.888 434.312 424.669 452 442 452s28.112-17.688 38.539-34.796c3.409-5.593 7.48-12.27 11.461-17.347V492h-65c-5.522 0-10 4.478-10 10s4.478 10 10 10h75c5.522 0 10-4.478 10-10V142c0-5.522-4.478-10-10-10zM252 252H146v-70h106zm-106 20h106v70H146zm126-52.143c3.981 5.077 8.052 11.754 11.461 17.347C293.888 254.312 304.669 272 322 272s28.112-17.688 38.539-34.796C367.022 226.567 375.901 212 382 212s14.978 14.567 21.461 25.204C413.888 254.312 424.669 272 442 272s28.112-17.688 38.539-34.796c3.409-5.593 7.48-12.27 11.461-17.347v64.276c-11.789 5.196-20.277 19.107-28.539 32.662C456.978 327.433 448.099 342 442 342s-14.978-14.567-21.461-25.204C410.112 299.688 399.331 282 382 282s-28.112 17.688-38.539 34.796C336.978 327.433 328.099 342 322 342s-14.978-14.567-21.461-25.204c-8.262-13.555-16.75-27.466-28.539-32.662zm220-25.724c-11.789 5.196-20.277 19.107-28.539 32.662C456.978 237.433 448.099 252 442 252s-14.978-14.567-21.461-25.204C410.112 209.688 399.331 192 382 192s-28.112 17.688-38.539 34.796C336.978 237.433 328.099 252 322 252s-14.978-14.567-21.461-25.204c-8.262-13.555-16.75-27.466-28.539-32.662V152h220zM372 132H262c-5.522 0-10 4.478-10 10v20H146V92h226zM20 372V20h226v52H136c-5.523 0-10 4.478-10 10v290zm126 60v-70h106v70zm317.461-25.204C456.978 417.433 448.099 432 442 432s-14.978-14.567-21.461-25.204C410.112 389.688 399.331 372 382 372s-28.112 17.688-38.539 34.796C336.978 417.433 328.099 432 322 432s-14.978-14.567-21.461-25.204c-8.262-13.555-16.75-27.466-28.539-32.662v-64.276c3.981 5.077 8.052 11.754 11.461 17.347C293.888 344.312 304.669 362 322 362s28.112-17.688 38.539-34.796C367.022 316.567 375.901 302 382 302s14.978 14.567 21.461 25.204C413.888 344.312 424.669 362 442 362s28.112-17.688 38.539-34.796c3.409-5.593 7.48-12.27 11.461-17.347v64.276c-11.789 5.197-20.277 19.107-28.539 32.663z"/></svg>