<svg height="512pt" viewBox="0 0 512 512" width="512pt" xmlns="http://www.w3.org/2000/svg"><path d="M482 225.04V225C482 100.934 380.617 0 256 0S30 100.934 30 225v.04C11.797 238.737 0 260.515 0 285v62c0 41.355 33.645 75 75 75h30c8.285 0 15-6.715 15-15V225c0-74.438 61.008-135 136-135 74.988 0 136 60.563 136 135v182c0 8.285 6.715 15 15 15h15v15c0 8.27-6.73 15-15 15h-77.578c-6.195-17.457-22.867-30-42.422-30h-61c-24.813 0-45 20.188-45 45s20.188 45 45 45h61c19.555 0 36.227-12.543 42.422-30H407c24.813 0 45-20.188 45-45v-16.508c34.191-6.969 60-37.273 60-73.492v-62c0-24.484-11.797-46.262-30-59.96zM287 482h-61c-8.27 0-15-6.73-15-15s6.73-15 15-15h61c8.27 0 15 6.73 15 15s-6.73 15-15 15zM90 392H75c-24.813 0-45-20.188-45-45v-62c0-24.813 20.188-45 45-45h15zM256 60c-87.219 0-157.777 67.223-165.309 150H75c-4.969 0-9.816.496-14.516 1.422C67.516 110.21 152.512 30 256 30s188.484 80.21 195.516 181.422A74.997 74.997 0 00437 210h-15.691C413.773 127.184 343.179 60 256 60zm226 287c0 24.813-20.188 45-45 45h-15V240h15c24.813 0 45 20.188 45 45zm0 0"/></svg>