<svg version="1.1" id="Capa_1" xmlns="http://www.w3.org/2000/svg" x="0" y="0" viewBox="0 0 216.416 216.416" xml:space="preserve"><g fill="#1d1d1b"><path d="M215.912 105.503a8.004 8.004 0 00-.24-.555 119.486 119.486 0 00-43.191-48.758c-19.171-12.295-41.396-18.793-64.271-18.793s-45.101 6.499-64.272 18.795a119.49 119.49 0 00-43.085 48.54 7.5 7.5 0 00-.11 6.726 119.482 119.482 0 0043.192 48.766c19.172 12.297 41.398 18.796 64.275 18.796 22.876 0 45.102-6.499 64.273-18.795a119.485 119.485 0 0043.192-48.762 7.52 7.52 0 00.237-5.96zM108.21 164.019c-38.583 0-74.42-21.789-92.312-55.812C33.79 74.184 69.627 52.396 108.21 52.396c38.582 0 74.42 21.79 92.312 55.812-17.893 34.02-53.731 55.811-92.312 55.811z"/><path d="M108.209 75.291c-18.15 0-32.917 14.767-32.917 32.917s14.767 32.917 32.917 32.917 32.917-14.767 32.917-32.917-14.767-32.917-32.917-32.917zm0 50.834c-9.879 0-17.917-8.038-17.917-17.917s8.038-17.917 17.917-17.917 17.917 8.038 17.917 17.917-8.038 17.917-17.917 17.917z"/></g></svg>