<svg height="368pt" viewBox="0 0 368 368" width="368pt" xmlns="http://www.w3.org/2000/svg"><path d="M128 280c0-22.055-17.945-40-40-40s-40 17.945-40 40 17.945 40 40 40 40-17.945 40-40zm-64 0c0-13.23 10.77-24 24-24s24 10.77 24 24-10.77 24-24 24-24-10.77-24-24zm0 0"/><path d="M360 80H175.594C171.535 35.215 133.824 0 88 0 39.48 0 0 39.48 0 88v192c0 48.52 39.48 88 88 88h272c4.426 0 8-3.574 8-8V88c0-4.426-3.574-8-8-8zM16 88c0-39.703 32.305-72 72-72s72 32.297 72 72v141.559C144.062 206.887 117.762 192 88 192s-56.063 14.887-72 37.559zm0 192c0-39.703 32.305-72 72-72s72 32.297 72 72-32.305 72-72 72-72-32.297-72-72zm336 72h-32V248c0-4.426-3.574-8-8-8s-8 3.574-8 8v104H138.441C161.113 336.062 176 309.762 176 280V96h128v104c0 4.426 3.574 8 8 8s8-3.574 8-8V96h32zm0 0"/></svg>