<svg version="1.1" id="Capa_1" xmlns="http://www.w3.org/2000/svg" x="0" y="0" viewBox="0 0 51.512 51.512" xml:space="preserve"><path d="M49.202 5.582a7.832 7.832 0 00-.561-.443C45.412 2.704 40.448-.206 35.657.012c-8.022.37-18.684 11.196-21.761 14.506C10.82 17.829.801 29.253 1.019 37.273c.033 1.337.314 2.754.836 4.21 1.205 3.361 3.497 6.395 5.184 8.322 0 0 .353.415.523.575.435.403 1.07.722 1.941.975.445.129.914.157 1.228.157.35 0 1.028-.035 1.645-.265.844-.315 1.448-.676 1.854-1.108.297-.32 5.962-7.551 5.994-7.597l.036-.055a5.01 5.01 0 00.699-1.217 4.848 4.848 0 00.05-3.4 4.604 4.604 0 00-1.192-1.819l-2.66-2.485c-.25-.233-.509-.666-.546-.819a2.203 2.203 0 01-.04-.345L32.07 15.724a.297.297 0 01.101-.071l.061.023c.124.061.518.349.908.709l2.662 2.459c1.399 1.301 3.575 1.624 5.272.796.605-.295 1.057-.699 1.27-.886l.12-.097c.055-.048 6.736-6.136 6.987-6.409.629-.677.969-1.743 1.041-3.258.04-.842-.208-1.898-.589-2.511-.247-.394-.477-.689-.701-.897zm-1.923 4.593c-.346.341-6.415 5.882-6.733 6.172l-.247.204a2.625 2.625 0 01-.544.392c-.608.296-1.4.18-1.917-.3l-2.665-2.462c-.311-.288-1.107-.988-1.77-1.266a3.175 3.175 0 00-1.274-.272c-.854.03-1.65.392-2.251 1.03L14.223 30.519c-.595.641-.785 1.573-.564 2.771.171.926.871 1.929 1.449 2.469l2.665 2.489c.179.166.321.386.411.634a1.87 1.87 0 01-.019 1.294 2.065 2.065 0 01-.299.501 1.874 1.874 0 00-.111.157c-.537.693-5.424 6.911-5.708 7.248-.002.001-.167.148-.72.355a2.053 2.053 0 01-.595.075c-.207 0-.342-.023-.391-.038-.536-.156-.724-.285-.728-.285-.097-.097-.264-.299-.293-.333-1.539-1.759-3.594-4.467-4.64-7.386-.414-1.154-.636-2.254-.661-3.274-.149-5.479 6.413-14.541 12.076-20.635 5.662-6.095 14.221-13.3 19.7-13.552 3.95-.184 8.201 2.385 11.007 4.5l.108.081c.064.047.184.132.236.176.071.075.14.187.196.276.068.133.164.546.151.804-.043.886-.202 1.296-.214 1.329z" fill="#010002"/></svg>