<svg version="1.1" id="Capa_1" xmlns="http://www.w3.org/2000/svg" x="0" y="0" viewBox="0 0 512 512" xml:space="preserve"><path d="M437.02 74.98C388.668 26.629 324.38 0 256 0c-56.329 0-109.767 17.942-154.534 51.887-30.833 23.379-56.368 53.923-73.846 88.329C9.293 176.297 0 215.252 0 256c0 68.38 26.629 132.667 74.98 181.02C123.332 485.371 187.62 512 256 512s132.668-26.629 181.02-74.98C485.371 388.667 512 324.38 512 256s-26.629-132.667-74.98-181.02zM256 497C123.112 497 15 388.888 15 256c0-76.087 34.818-146.127 95.528-192.161C152.667 31.888 202.971 15 256 15c132.888 0 241 108.112 241 241S388.888 497 256 497z"/><path d="M448.01 216.54a195.073 195.073 0 00-11.44-36.77 196.767 196.767 0 00-18.09-33.29 197.827 197.827 0 00-52.96-52.96 196.026 196.026 0 00-33.29-18.09c-11.83-5.01-24.2-8.86-36.77-11.44A196.611 196.611 0 00256 60h-.01c-16.181 0-32.221 1.95-47.681 5.8a193.473 193.473 0 00-44.37 17.08c-1.77.95-3.06 2.52-3.64 4.44s-.38 3.94.56 5.71a7.49 7.49 0 006.62 3.97c1.221 0 2.44-.31 3.53-.89C197.229 82.1 225.819 75 256 75c48.26 0 93.689 18.85 127.92 53.08C418.149 162.31 437 207.74 437 256s-18.851 93.69-53.08 127.92C349.689 418.15 304.26 437 256 437s-93.69-18.85-127.92-53.08C93.85 349.69 75 304.26 75 256c0-6.22.31-12.49.939-18.65 5.09-50.27 30.25-94.91 70.84-125.7 3.29-2.5 3.94-7.21 1.44-10.51a7.462 7.462 0 00-5.979-2.97c-1.641 0-3.2.53-4.511 1.52-.01 0-.01.01-.01.01-10.87 8.24-20.88 17.57-29.75 27.73a194.53 194.53 0 00-23.04 32.59 193.992 193.992 0 00-15.81 36.47 195.916 195.916 0 00-8.11 39.36c-.01.06-.01.13-.02.2C60.34 242.6 60 249.32 60 256c0 13.28 1.35 26.55 3.99 39.46a195.07 195.07 0 0011.439 36.77 196.767 196.767 0 0018.09 33.29 198.582 198.582 0 0023.95 29.01 197.88 197.88 0 0029.01 23.95 196.102 196.102 0 0033.29 18.09 195.06 195.06 0 0036.771 11.44c12.91 2.64 26.18 3.99 39.46 3.99 13.279 0 26.55-1.35 39.46-3.99a195.119 195.119 0 0036.77-11.44c11.61-4.92 22.811-11 33.29-18.09a197.827 197.827 0 0029.01-23.95 198.454 198.454 0 0023.95-29.01 196.767 196.767 0 0018.09-33.29 195 195 0 0011.44-36.77c2.65-12.91 3.99-26.18 3.99-39.46 0-13.28-1.34-26.55-3.99-39.46z"/><path d="M408.93 191.44c-4.17-9.83-9.32-19.32-15.32-28.19a168 168 0 00-20.279-24.58 168.06 168.06 0 00-24.58-20.28c-8.87-6-18.36-11.16-28.19-15.32C300.1 94.4 278.38 90 256 90h-.061c-18.14 0-35.93 2.88-52.87 8.57-16.939 5.69-32.829 14.11-47.229 25.03a7.488 7.488 0 00-2.97 5.94 7.401 7.401 0 001.529 4.57 7.44 7.44 0 005.981 2.97 7.49 7.49 0 004.53-1.52c26.36-19.98 57.86-30.55 91.09-30.56 40.26 0 78.16 15.73 106.72 44.28C391.27 177.84 407 215.74 407 256s-15.73 78.16-44.28 106.72C334.16 391.27 296.26 407 256 407s-78.16-15.73-106.721-44.28C120.729 334.16 105 296.26 105 256c.01-37.62 13.8-73.55 38.83-101.16 1.34-1.49 2.029-3.41 1.93-5.41s-.97-3.84-2.45-5.18a7.454 7.454 0 00-5.04-1.95c-2.109 0-4.14.9-5.55 2.46-13.7 15.1-24.35 32.36-31.65 51.3C93.72 215.12 90 235.29 90 256c0 22.38 4.399 44.1 13.069 64.56 4.16 9.83 9.32 19.32 15.32 28.19a168.07 168.07 0 0020.28 24.58c7.52 7.51 15.78 14.34 24.58 20.28 8.87 6 18.359 11.16 28.189 15.32C211.899 417.6 233.62 422 256 422s44.1-4.4 64.56-13.07c9.83-4.16 19.32-9.32 28.19-15.32 8.79-5.94 17.06-12.77 24.58-20.28 7.51-7.52 14.34-15.79 20.279-24.58 6-8.87 11.15-18.36 15.32-28.19C417.6 300.1 421.99 278.38 422 256c-.01-22.38-4.4-44.1-13.07-64.56z"/><path d="M381.29 203.11c-3.41-8.06-7.63-15.83-12.55-23.1a136.942 136.942 0 00-16.62-20.13 136.93 136.93 0 00-20.13-16.62 135.526 135.526 0 00-23.101-12.55C292.13 123.61 274.33 120 256 120h-.021c-19.109 0-37.52 3.84-54.72 11.42a7.484 7.484 0 00-3.97 4.15 7.457 7.457 0 00.13 5.74 7.507 7.507 0 006.87 4.48c1.04 0 2.06-.22 3.02-.64C222.59 138.42 238.97 135 256 135c32.26 0 62.63 12.6 85.52 35.48C364.399 193.37 377 223.74 377 256s-12.601 62.63-35.48 85.52C318.63 364.4 288.26 377 256 377s-62.63-12.6-85.521-35.48C147.6 318.63 135 288.25 135 256c.02-38.15 17.49-73.31 47.93-96.46.04-.03.07-.05.1-.08.011 0 .011 0 .011-.01a7.431 7.431 0 002.96-5.93 7.477 7.477 0 00-1.521-4.57 7.467 7.467 0 00-5.989-2.97c-1.641 0-3.211.53-4.521 1.53a138.65 138.65 0 00-22.89 21.86 136.04 136.04 0 00-16.95 26.03 135.01 135.01 0 00-10.521 29.21A136.968 136.968 0 00120 256c0 18.33 3.609 36.13 10.71 52.89 3.41 8.06 7.63 15.83 12.55 23.1 4.87 7.2 10.46 13.98 16.61 20.13a137.378 137.378 0 0020.14 16.62c7.27 4.92 15.04 9.14 23.1 12.55C219.87 388.39 237.66 392 256 392c18.33 0 36.13-3.61 52.89-10.71 8.061-3.41 15.83-7.63 23.101-12.55a136.983 136.983 0 0020.13-16.62 136.942 136.942 0 0016.62-20.13c4.92-7.27 9.14-15.04 12.55-23.1C388.39 292.13 392 274.33 392 256s-3.61-36.13-10.71-52.89z"/><path d="M256 150c-23.332 0-45.43 7.405-63.904 21.413C165.343 191.698 150 222.528 150 256c0 58.449 47.552 106 106 106s106-47.551 106-106-47.552-106-106-106zm0 197c-50.178 0-91-40.822-91-91 0-28.736 13.18-55.21 36.158-72.634C217.004 171.351 235.968 165 256 165c50.178 0 91 40.822 91 91s-40.822 91-91 91z"/><path d="M256 233.5c-4.96 0-9.631 1.554-13.503 4.492-5.718 4.334-8.997 10.897-8.997 18.008 0 12.407 10.094 22.5 22.5 22.5s22.5-10.093 22.5-22.5-10.094-22.5-22.5-22.5zm0 30c-4.136 0-7.5-3.364-7.5-7.5 0-2.409 1.086-4.559 3.061-6.056 1.263-.958 2.757-1.444 4.439-1.444 4.136 0 7.5 3.364 7.5 7.5s-3.364 7.5-7.5 7.5z"/><path d="M480.12 226.9c-3.62-27.82-12.2-54.32-25.511-78.76-12.859-23.62-29.71-44.6-50.09-62.36-41.279-35.98-93.97-55.79-148.37-55.8-9.699 0-19.55.64-29.25 1.9-19.33 2.51-38.159 7.43-55.96 14.63a222.868 222.868 0 00-49.92 28.14 7.477 7.477 0 00-2.93 4.93c-.29 1.98.22 3.96 1.42 5.57 1.43 1.91 3.62 3 6.01 3 1.63 0 3.181-.51 4.48-1.49 29.09-21.74 62.34-35.16 98.83-39.9 9.069-1.18 18.26-1.78 27.319-1.78h.021c105.6 0 195.479 79.04 209.07 183.85 1.18 9.05 1.77 18.25 1.77 27.33.01 105.61-79.02 195.49-183.84 209.08a212.363 212.363 0 01-27.34 1.77c-56 0-110.811-23.07-150.38-63.29-32.44-32.99-52.73-74.67-58.69-120.55-1.2-9.22-1.81-18.56-1.81-27.75.01-56.57 22.42-109.79 63.1-149.88a7.414 7.414 0 002.229-5.37c0-1.97-.77-3.83-2.149-5.23a7.424 7.424 0 00-5.351-2.24c-1.979 0-3.85.77-5.26 2.16a230.398 230.398 0 00-29 34.78 225.455 225.455 0 00-21.18 39.08A223.88 223.88 0 0034.358 211a225.459 225.459 0 00-4.409 44.42c0 9.84.649 19.83 1.93 29.68 3.22 24.78 10.42 48.62 21.41 70.86 10.62 21.5 24.569 41.11 41.47 58.28a227.767 227.767 0 0072.84 49.7 225.753 225.753 0 0042.74 13.42 224.889 224.889 0 0045.5 4.65c9.72 0 19.56-.63 29.26-1.89 27.811-3.62 54.311-12.2 78.76-25.51 23.61-12.86 44.591-29.71 62.351-50.09 35.979-41.28 55.8-93.97 55.8-148.36 0-9.73-.64-19.58-1.89-29.26z"/></svg>